<svg enable-background="new 0 0 1199.8 629.1" height="228.787565" viewBox="0 0 1199.8 629.1" width="437.086692" xmlns="http://www.w3.org/2000/svg" xmlns:xlink="http://www.w3.org/1999/xlink"><linearGradient id="a"><stop offset="0" stop-color="#42ab37"/><stop offset=".487" stop-color="#23706b"/><stop offset=".8389" stop-color="#234772"/><stop offset="1" stop-color="#243772"/></linearGradient><linearGradient id="b" gradientUnits="userSpaceOnUse" x1="783.7506" x2="1043.2377" xlink:href="#a" y1="139.5872" y2="139.5872"/><linearGradient id="c" gradientUnits="userSpaceOnUse" x1="783.7506" x2="1043.2377" xlink:href="#a" y1="102.18" y2="102.18"/><linearGradient id="d" gradientUnits="userSpaceOnUse" x1="783.7506" x2="1043.2377" xlink:href="#a" y1="188.7542" y2="188.7542"/><linearGradient id="e" gradientUnits="userSpaceOnUse" x1="783.7506" x2="1043.2377" xlink:href="#a" y1="289.9544" y2="289.9544"/><linearGradient id="f" gradientUnits="userSpaceOnUse" x1="783.7506" x2="1043.2377" xlink:href="#a" y1="236.4593" y2="236.4593"/><linearGradient id="g" gradientUnits="userSpaceOnUse" x1="783.7506" x2="1043.2377" xlink:href="#a" y1="106.0304" y2="106.0304"/><linearGradient id="h" gradientUnits="userSpaceOnUse" x1="783.7506" x2="1043.2377" xlink:href="#a" y1="186.6613" y2="186.6613"/><linearGradient id="i" gradientUnits="userSpaceOnUse" x1="783.7506" x2="1043.2377" xlink:href="#a" y1="152.1192" y2="152.1192"/><linearGradient id="j" gradientUnits="userSpaceOnUse" x1="783.7506" x2="1043.2377" xlink:href="#a" y1="234.8785" y2="234.8785"/><linearGradient id="k" gradientUnits="userSpaceOnUse" x1="783.7506" x2="1043.2377" xlink:href="#a" y1="197.818" y2="197.818"/><linearGradient id="l" gradientUnits="userSpaceOnUse" x1="783.7506" x2="1043.2377" xlink:href="#a" y1="173.6438" y2="173.6438"/><linearGradient id="m" gradientUnits="userSpaceOnUse" x1="783.7506" x2="1043.2377" xlink:href="#a" y1="236.7893" y2="236.7893"/><linearGradient id="n" gradientUnits="userSpaceOnUse" x1="783.7506" x2="1043.2377" xlink:href="#a" y1="274.7796" y2="274.7796"/><linearGradient id="o" gradientUnits="userSpaceOnUse" x1="783.7506" x2="1043.2377" xlink:href="#a" y1="87.6595" y2="87.6595"/><linearGradient id="p" gradientUnits="userSpaceOnUse" x1="783.7506" x2="1043.2377" xlink:href="#a" y1="82.906" y2="82.906"/><linearGradient id="q" gradientUnits="userSpaceOnUse" x1="783.7506" x2="1043.2377" xlink:href="#a" y1="133.1706" y2="133.1706"/><linearGradient id="r" gradientUnits="userSpaceOnUse" x1="783.7506" x2="1043.2377" xlink:href="#a" y1="66.0104" y2="66.0104"/><linearGradient id="s" gradientUnits="userSpaceOnUse" x1="783.7506" x2="1043.2377" xlink:href="#a" y1="48.3805" y2="48.3805"/><linearGradient id="t" gradientUnits="userSpaceOnUse" x1="783.7506" x2="1043.2377" xlink:href="#a" y1="44.3113" y2="44.3113"/><linearGradient id="u" gradientUnits="userSpaceOnUse" x1="783.7506" x2="1043.2377" xlink:href="#a" y1="21.6302" y2="21.6302"/><linearGradient id="v" gradientUnits="userSpaceOnUse" x1="783.7506" x2="1043.2377" xlink:href="#a" y1="1.4008" y2="1.4008"/><linearGradient id="w" gradientUnits="userSpaceOnUse" x1="783.7506" x2="1043.2377" xlink:href="#a" y1="41.914" y2="41.914"/><linearGradient id="x" gradientUnits="userSpaceOnUse" x1="783.7506" x2="1043.2377" xlink:href="#a" y1="10.4879" y2="10.4879"/><linearGradient id="y" gradientUnits="userSpaceOnUse" x1="783.7506" x2="1043.2377" xlink:href="#a" y1="16.1979" y2="16.1979"/><linearGradient id="z" gradientUnits="userSpaceOnUse" x1="783.7506" x2="1043.2377" xlink:href="#a" y1="79.4023" y2="79.4023"/><linearGradient id="A" gradientUnits="userSpaceOnUse" x1="783.7506" x2="1043.2377" xlink:href="#a" y1="71.0572" y2="71.0572"/><linearGradient id="B" gradientUnits="userSpaceOnUse" x1="783.7506" x2="1043.2377" xlink:href="#a" y1="39.6345" y2="39.6345"/><linearGradient id="C" gradientUnits="userSpaceOnUse" x1="783.7506" x2="1043.2377" xlink:href="#a" y1="34.5477" y2="34.5477"/><linearGradient id="D" gradientUnits="userSpaceOnUse" x1="783.7506" x2="1043.2377" xlink:href="#a" y1="150.0407" y2="150.0407"/><linearGradient id="E" gradientUnits="userSpaceOnUse" x1="783.7506" x2="1043.2377" xlink:href="#a" y1="126.973" y2="126.973"/><linearGradient id="F" gradientUnits="userSpaceOnUse" x1="783.7506" x2="1043.2377" xlink:href="#a" y1="175.3346" y2="175.3346"/><linearGradient id="G" gradientUnits="userSpaceOnUse" x1="783.7506" x2="1043.2377" xlink:href="#a" y1="115.2375" y2="115.2375"/><linearGradient id="H" gradientUnits="userSpaceOnUse" x1="783.7506" x2="1043.2377" xlink:href="#a" y1="202.0516" y2="202.0516"/><linearGradient id="I" gradientUnits="userSpaceOnUse" x1="783.7506" x2="1043.2377" xlink:href="#a" y1="241.3706" y2="241.3706"/><linearGradient id="J" gradientUnits="userSpaceOnUse" x1="783.7506" x2="1043.2377" xlink:href="#a" y1="289.5967" y2="289.5967"/><linearGradient id="K" gradientUnits="userSpaceOnUse" x1="783.7506" x2="1043.2377" xlink:href="#a" y1="221.5634" y2="221.5634"/><linearGradient id="L" gradientUnits="userSpaceOnUse" x1="783.7506" x2="1043.2377" xlink:href="#a" y1="248.8691" y2="248.8691"/><g fill="#0c3c47"><path d="m48.5 8.4v304.5h-41v-304.5z"/><path d="m118.7 240.9v10.9c0 17.8 5.9 30.1 21.9 30.1 14.6 0 21-9.1 21-27.3s-5.5-28.7-33.3-46.9c-31.9-20.5-46.9-37.4-46.9-70.7 0-37.4 19.6-62 59.3-62 42.8 0 58.8 25.1 58.8 64.7v10h-39.7v-13.7c0-17.8-5.5-26.4-19.1-26.4-13.2 0-18.7 9.6-18.7 24.2 0 15 5 21.9 27.3 36.5 38.3 24.6 53.3 41 53.3 79.8 0 43.8-21 66.6-63.4 66.6-50.1 0-62-31.9-62-65.2v-10.5h41.5z"/><path d="m229 8.4h61.1c65.2 0 77.5 36.5 77.5 89.3v118.5c0 46.5-7.8 96.6-78.4 96.6h-60.2zm41 269.4h16.4c33.3 0 39.7-20.1 39.7-55.2v-128.5c0-31-5.5-50.6-39.7-50.6h-16.4z"/><path d="m404 8.4h58.3c50.6 0 69.7 24.6 69.7 67.9v12.3c0 42.8-14.1 55.6-28.3 61.5 15 5 34.2 17.8 34.2 61.1v22.8c0 52-20.1 78.9-72.5 78.9h-61.4zm54.7 125.9c26.9 0 34.6-9.1 34.6-41.5v-12.8c0-26-9.1-37.4-33.3-37.4h-16.4v91.6h15.1zm-15 144.9h17.3c29.2 0 36.9-13.7 36.9-46v-21c0-31-9.6-44.2-39.2-44.2h-15z"/><path d="m18.2 506v97.8h-13.2v-97.8z"/><path d="m45.1 580.7v3.5c0 5.7 1.9 9.7 7 9.7 4.7 0 6.7-2.9 6.7-8.8s-1.8-9.2-10.7-15.1c-10.2-6.6-15.1-12-15.1-22.7 0-12 6.3-19.9 19-19.9 13.8 0 18.9 8.1 18.9 20.8v3.2h-12.6v-4.4c0-5.7-1.8-8.5-6.2-8.5-4.2 0-6 3.1-6 7.8 0 4.8 1.6 7 8.8 11.7 12.3 7.9 17.1 13.2 17.1 25.6 0 14.1-6.7 21.4-20.3 21.4-16.1 0-19.9-10.2-19.9-20.9v-3.4z"/><path d="m85.4 603.8v-102h13v102z"/><path d="m152.4 589.5c0 4.8 0 11.7.3 14.3h-12c-.3-1.6-.9-4.7-.9-5.7-2.5 5-6.9 6.9-12.4 6.9-11.1 0-15.5-10.1-15.5-21.7v-1.3c0-17.9 11.7-23.3 25.2-23.3h2.3v-10.5c0-6.3-.9-10-6-10-5 0-6.3 3.8-6.3 9.1v1.5h-12.9v-1.3c0-10.7 4.1-20.1 19.6-20.1 13.9 0 18.6 8.1 18.6 19.8zm-12.7-20.7h-3.1c-7.5 0-12.3 3.1-12.3 13v1.2c0 6 2 10.4 7.2 10.4 5.9 0 8.2-4.2 8.2-14.9z"/><path d="m170.2 550.4c0-14.5 0-18.3-.1-21.8h12.4c.4 2.2.4 4.2.6 6.7 2.3-5 6.7-7.9 13-7.9 6 0 10.1 2.5 11.9 8.3 2.5-4.4 6.4-8.3 14.2-8.3 7.9 0 14.6 3.8 14.6 18.4v58h-13.2v-55.5c0-5.6-1.3-9.1-6.1-9.1-6 0-7.5 5-7.5 12.7v51.8h-13.2v-55c0-7.5-2.1-9.5-6.3-9.5-6 0-7.3 5.1-7.3 12.9v51.7h-13z"/><path d="m254.2 501.8h13.2v15.7h-13.2zm0 26.8h13v75.2h-13z"/><path d="m322.4 579.4v1c0 13.3-3.4 24.6-20.1 24.6-16.2 0-19.6-11-19.6-26.5v-27.2c0-12.4 4.4-23.9 20.3-23.9 17.1 0 19.3 12.4 19.3 22.1v2.9h-13v-2.9c0-6.3-.9-11-6.6-11-5 0-6.9 3.8-6.9 11.3v32.5c0 5.9 1.2 11.6 6.9 11.6 5.3 0 6.6-4 6.6-11.4v-3.1z"/><path d="m360.5 506h19.6c20.9 0 24.9 11.7 24.9 28.7v38.1c0 14.9-2.5 31-25.2 31h-19.3zm13.1 86.5h5.3c10.7 0 12.7-6.4 12.7-17.7v-41.3c0-10-1.8-16.2-12.7-16.2h-5.3z"/><path d="m432.1 569.4v11.6c0 6.6 1.3 12.9 7.8 12.9 6.4 0 7.5-5.6 7.5-11.7v-.4h12.6v.4c0 8.2-1.8 22.8-19.9 22.8-17.7 0-20.9-11.3-20.9-26.5v-26.1c0-10.7 3.7-25 20.9-25 15.4 0 20.2 10.8 20.2 25v17zm15.6-10.4v-8.5c0-6.9-1.3-12-7.6-12-5.9 0-7.9 4.4-7.9 12.1v8.3h15.5z"/><path d="m484 528.6c2.3 13.9 7.6 44.9 9.5 60.6h.1c1.3-14.8 7.5-45.8 10-60.6h13l-16.1 75.2h-14.8l-15.7-75.2z"/><path d="m539.1 569.4v11.6c0 6.6 1.3 12.9 7.8 12.9 6.4 0 7.5-5.6 7.5-11.7v-.4h12.6v.4c0 8.2-1.8 22.8-19.9 22.8-17.7 0-20.9-11.3-20.9-26.5v-26.1c0-10.7 3.7-25 20.9-25 15.4 0 20.2 10.8 20.2 25v17zm15.6-10.4v-8.5c0-6.9-1.3-12-7.6-12-5.9 0-7.9 4.4-7.9 12.1v8.3h15.5z"/><path d="m582.3 603.8v-102h13v102z"/><path d="m652.8 551v30c0 16.1-7.9 24-21.2 24-13.6 0-20.9-7.9-20.9-23.9v-30.6c0-15.7 8.6-23.1 21.4-23.1 13.1 0 20.7 8.3 20.7 23.6zm-29-.8v31.3c0 7 2.2 11.7 8.1 11.7 5.3 0 7.8-3.8 7.8-11.9v-31.2c0-6.4-1.9-11.3-7.9-11.3-5.5.2-8 4.3-8 11.4z"/><path d="m668.2 550.2c0-10.2 0-17-.1-21.7h12.4c.3 1.5.6 4.7.6 7.6 2-4.8 6.1-8.8 13.6-8.8 10.5 0 15.5 7.2 15.5 22v31.3c0 17-6 24.3-16.8 24.3-6.9 0-10.4-3.4-12.2-6.9v31h-13zm13 28.1c0 8.2 1.3 14.8 8.1 14.8 5.9 0 7.8-4.5 7.8-12.3v-30.6c0-7.8-2.6-11-7.2-11-6.1 0-8.6 4.5-8.6 13.6v25.5z"/><path d="m725.7 550.4c0-14.5 0-18.3-.1-21.8h12.4c.4 2.2.4 4.2.6 6.7 2.3-5 6.7-7.9 13-7.9 6 0 10.1 2.5 11.9 8.3 2.5-4.4 6.4-8.3 14.2-8.3 7.9 0 14.6 3.8 14.6 18.4v58h-13.2v-55.5c0-5.6-1.3-9.1-6.1-9.1-6 0-7.5 5-7.5 12.7v51.8h-13.2v-55c0-7.5-2.1-9.5-6.3-9.5-6 0-7.3 5.1-7.3 12.9v51.7h-13z"/><path d="m820.5 569.4v11.6c0 6.6 1.3 12.9 7.8 12.9 6.4 0 7.5-5.6 7.5-11.7v-.4h12.7v.4c0 8.2-1.8 22.8-19.9 22.8-17.7 0-20.9-11.3-20.9-26.5v-26.1c0-10.7 3.7-25 20.9-25 15.4 0 20.2 10.8 20.2 25v17zm15.6-10.4v-8.5c0-6.9-1.3-12-7.6-12-5.9 0-7.9 4.4-7.9 12.1v8.3h15.5z"/><path d="m863.6 551.7c0-15.2 0-19.6-.1-23.1h12.4c.3 1.8.6 4.5.6 7.2 2.2-4.8 6.3-8.3 13.8-8.3 8.8 0 15.2 5.1 15.2 19.2v57.2h-13.2v-54.6c0-7-2.3-10-7-10-5.7 0-8.6 2.9-8.6 14.8v49.8h-13v-52.2z"/><path d="m916.1 528.6h8.3v-18.3h13v18.3h10v11.6h-10v47c0 3.7.6 6.9 5.3 6.9 1.3 0 3.4-.1 4.2-.4v10c-2.3 1.2-6 1.3-8.6 1.3-8.6 0-13.9-2.9-13.9-15.4v-49.3h-8.3z"/><path d="m983.4 506h18.7c16.2 0 22.4 7.9 22.4 21.8v4c0 13.8-4.5 17.9-9.1 19.8 4.8 1.6 11 5.7 11 19.6v7.3c0 16.7-6.4 25.3-23.3 25.3h-19.8v-97.8zm17.6 40.4c8.6 0 11.1-2.9 11.1-13.3v-4.1c0-8.3-2.9-12-10.7-12h-5.3v29.4zm-4.9 46.6h5.6c9.4 0 11.9-4.4 11.9-14.8v-6.7c0-10-3.1-14.2-12.6-14.2h-4.8v35.7z"/><path d="m1079.3 589.5c0 4.8 0 11.7.3 14.3h-12c-.3-1.6-.9-4.7-.9-5.7-2.5 5-6.9 6.9-12.4 6.9-11.1 0-15.5-10.1-15.5-21.7v-1.3c0-17.9 11.7-23.3 25.2-23.3h2.3v-10.5c0-6.3-.9-10-6-10-5 0-6.3 3.8-6.3 9.1v1.5h-12.9v-1.3c0-10.7 4.1-20.1 19.6-20.1 13.9 0 18.6 8.1 18.6 19.8zm-12.8-20.7h-3.1c-7.5 0-12.3 3.1-12.3 13v1.2c0 6 2 10.4 7.2 10.4 5.9 0 8.2-4.2 8.2-14.9z"/><path d="m1097 551.7c0-15.2 0-19.6-.1-23.1h12.4c.3 1.8.6 4.5.6 7.2 2.2-4.8 6.3-8.3 13.8-8.3 8.8 0 15.2 5.1 15.2 19.2v57.2h-13.2v-54.6c0-7-2.3-10-7-10-5.7 0-8.6 2.9-8.6 14.8v49.8h-13v-52.2z"/><path d="m1169.5 562.1h.1c3.5-8.3 10.7-24.2 14.8-33.5h13.8c-5 10.2-9.5 19-14.1 27.7l15.7 47.6h-14.3l-10.2-34.8c-1.5 2.8-4.4 8.6-5.7 11.1v23.7h-13v-102h13v60.2z"/><path d="m25 382.1c1.7 0 3.2-.6 4.4-1.7s1.8-2.6 1.8-4.2c0-1.7-.6-3.1-1.8-4.2s-2.7-1.7-4.4-1.7-3.2.6-4.4 1.7-1.8 2.5-1.8 4.2.6 3.1 1.8 4.2 2.6 1.7 4.4 1.7z"/><path d="m46.8 382.1c1.8 0 3.2-.6 4.5-1.7 1.2-1.1 1.8-2.5 1.8-4.2s-.6-3.1-1.8-4.3c-1.2-1.1-2.7-1.7-4.5-1.7s-3.2.6-4.4 1.7-1.8 2.5-1.8 4.2.6 3.1 1.8 4.2c1.1 1.2 2.6 1.8 4.4 1.8z"/><path d="m80.1 472.1c-1.7 0-3.2.6-4.4 1.8s-1.8 2.6-1.8 4.3.6 3.1 1.8 4.2 2.7 1.6 4.4 1.6 3.2-.5 4.4-1.6 1.8-2.5 1.8-4.2-.6-3.1-1.8-4.3-2.7-1.8-4.4-1.8z"/><path d="m101.9 472.1c-1.8 0-3.2.6-4.4 1.8s-1.8 2.6-1.8 4.3.6 3.1 1.8 4.2 2.7 1.6 4.4 1.6c1.8 0 3.2-.5 4.5-1.6 1.2-1.1 1.8-2.5 1.8-4.2s-.6-3.2-1.8-4.3c-1.2-1.3-2.7-1.8-4.5-1.8z"/><path d="m222 386.5c1.8 0 3.3-.6 4.6-1.7 1.2-1.1 1.8-2.6 1.8-4.4s-.6-3.2-1.8-4.4-2.8-1.8-4.6-1.8-3.3.6-4.6 1.8c-1.2 1.2-1.8 2.6-1.8 4.4s.6 3.2 1.8 4.4c1.2 1.1 2.7 1.7 4.6 1.7z"/><path d="m277.3 386.5c1.8 0 3.3-.6 4.5-1.7s1.8-2.5 1.8-4.2-.6-3.1-1.8-4.3c-1.2-1.1-2.7-1.7-4.5-1.7s-3.2.6-4.4 1.7-1.8 2.5-1.8 4.2.6 3.1 1.8 4.2c1.2 1.2 2.7 1.8 4.4 1.8z"/><path d="m255.5 386.5c1.7 0 3.2-.6 4.4-1.7s1.8-2.6 1.8-4.2c0-1.7-.6-3.1-1.8-4.2s-2.7-1.7-4.4-1.7-3.2.6-4.4 1.7-1.8 2.5-1.8 4.2.6 3.1 1.8 4.2 2.7 1.7 4.4 1.7z"/><path d="m350.1 451.3h-14.8-2.3-14.7v-82.5h-9v82.5h-14.8-2.2-20.7v-52.2h-9v52.2h-21.6-2.3-11.8v-52.2h-9v52.2h-11.1-2.3-14c1.9-4.1 2.8-8.6 2.8-13.3 0-9.3-3.2-17.1-9.4-23.4-6.3-6.3-14-9.5-23.2-9.5s-16.9 3.2-23.1 9.6-9.3 14.2-9.3 23.4c0 4.5.9 9 2.7 13.3h-11.8-2.2-20.7v-52.2h-9v52.2h-21.8-2.1-12v-57.8h-9v5.6h-5.2c-11.1 0-20.1 2.9-27 8.7-6.8 5.6-10.2 13-10.2 21.9 0 10.1 3.5 17.7 10.6 22.8 7.1 5.2 15.9 7.7 26.6 7.7h26.2 2.1 51.5 2.2 17.6c6.3 6.8 14.3 10.1 23.9 10.1s17.6-3.4 24-10.1h19.8 2.3 31.9 2.3 51.3 2.2 38.5 2.3 23.8v-91.5h-9zm-307.7 0h-8.9c-7 0-12.8-1.9-17.5-5.8s-7-9-7-15.5 2.5-11.7 7.4-15.8 10.6-6.1 17.1-6.1h8.9zm135.1 3.4c-4.6 4.5-10.2 6.7-16.9 6.7-6.6 0-12.2-2.3-16.6-6.9s-6.6-10.2-6.6-16.7 2.2-12.1 6.6-16.7 10-6.9 16.7-6.9c6.8 0 12.4 2.3 16.9 6.8s6.8 10.2 6.8 17c0 6.6-2.3 12.3-6.9 16.7z"/><path d="m437 431.7c1.8 0 3.3-.6 4.6-1.7 1.2-1.1 1.8-2.6 1.8-4.4s-.6-3.2-1.8-4.4-2.8-1.7-4.6-1.7-3.3.6-4.6 1.7c-1.2 1.2-1.8 2.6-1.8 4.4s.6 3.2 1.8 4.4c1.2 1.1 2.7 1.7 4.6 1.7z"/><path d="m437 453.1c1.8 0 3.3-.6 4.6-1.7 1.2-1.1 1.8-2.6 1.8-4.4s-.6-3.2-1.8-4.4-2.8-1.7-4.6-1.7-3.3.6-4.6 1.7c-1.2 1.2-1.8 2.6-1.8 4.4s.6 3.2 1.8 4.4 2.7 1.7 4.6 1.7z"/><path d="m558.7 405c-9.2 0-16.9 3.2-23.1 9.6s-9.3 14.2-9.3 23.4c0 4.5.9 9 2.7 13.3h-11.7-2.3-11.8v-52.2h-20.1c-7.4 0-13.3 1.8-17.6 5.3-5.3 4.5-7.9 11-7.9 19.4v41.6h-26.3c-6.6 0-13.2-1.7-19.7-5.1l-4.1 8c7.7 4.1 16.6 6.1 26.7 6.1h32.4v-52.1c0-4.6 1.5-8.2 4.6-10.6s7.1-3.6 12-3.6h11v52.2h20.8 2.3 17.5c6.3 6.8 14.1 10.1 23.5 10.1 9.3 0 17.2-3.1 23.5-9.3 6.4-6.2 9.6-13.9 9.6-23.2s-3.2-17.1-9.4-23.5c-6.4-6.2-14.1-9.4-23.3-9.4zm16.7 49.7c-4.6 4.5-10.2 6.7-16.9 6.7s-12.2-2.3-16.6-6.9-6.6-10.2-6.6-16.7 2.2-12.1 6.6-16.7 10-6.9 16.7-6.9c6.8 0 12.4 2.3 16.9 6.8s6.8 10.2 6.8 17c0 6.6-2.3 12.3-6.9 16.7z"/><path d="m620.6 381.7h9v63.5h-9z"/><path d="m792.1 435.2c0 5.3-1.4 9.5-4.3 12.5-2.9 3.1-7 4.6-12.3 4.6s-9.7-1.5-13-4.5-5.1-6.8-5.2-11.3v-31.9h-9v31.4c0 5.2-1.5 9-4.4 11.5s-6.5 3.8-10.9 3.8h-17.5v-46.6h-9v46.6h-23.7c-5.3 0-9.5-.8-12.6-2.4s-5.6-4.1-7.4-7.4c1-3.2 1.5-6.4 1.5-9.6v-62.4h8.3v-9h-17.4v71.4c0 6.6-1.9 11.5-5.9 14.7s-9.2 4.7-15.8 4.7h-31.1l1.1 9h26.6c14.7 0 24.6-4 29.7-12.1 1.8 3.6 4.4 6.5 7.8 8.7 3 2 7.3 3 12.8 3.2v.1h52.5c8.7 0 15.3-3.4 20-10.4 4.6 7.6 12.1 11.5 22.3 11.5 17.3 0 25.9-9.2 25.9-27.6v-41.2h-9z"/><path d="m832.2 381.7h9v63.5h-9z"/><path d="m825.5 476c0 9.1 4.2 13.6 12.7 13.6h4.6v-5.1h-3.8c-4.7 0-7-2.1-7-6.3h14.4v-6h-20.9z"/><path d="m866.7 431.9c0 6.6-1.9 11.5-5.9 14.7s-9.2 4.7-15.8 4.7h-31l1.1 9h26.6c11.5 0 20.1-2.5 25.7-7.4 5.6-5 8.4-12 8.4-21v-62.4h8.3v-9h-17.4z"/><path d="m906.9 368.8h9v91.5h-9z"/><path d="m1027.8 417.9h-16.7v-4.5c0-2.1.5-3.7 1.5-4.7 1-1.1 2.6-1.6 5-1.6h6.6v-5.1h-6.8c-4.3 0-7.5 1.1-9.6 3.3s-3.2 5.6-3.2 10.4v8.2h23.2z"/><path d="m1084.8 386.5c1.8 0 3.3-.6 4.6-1.7 1.2-1.1 1.8-2.6 1.8-4.4s-.6-3.2-1.8-4.4-2.8-1.8-4.6-1.8-3.3.6-4.6 1.8c-1.2 1.2-1.8 2.6-1.8 4.4s.6 3.2 1.8 4.4c1.2 1.1 2.8 1.7 4.6 1.7z"/><path d="m1119.4 471.8c-1.8 0-3.3.6-4.6 1.7-1.2 1.2-1.9 2.6-1.9 4.4s.6 3.2 1.8 4.3 2.8 1.7 4.6 1.7 3.3-.6 4.6-1.7c1.2-1.1 1.8-2.6 1.8-4.3s-.6-3.2-1.8-4.3c-1.2-1.2-2.7-1.8-4.5-1.8z"/><path d="m1152.7 451.3h-14.7-2.3-11.8v-52.2h-9v52.2h-11-2.3-11.8v-52.2h-9v52.2h-7.3-6-13.9v-82.5h-9v82.5h-36.7c-7.6 0-13.4-1.6-17.3-4.7-3.9-3.2-5.9-8.3-5.9-15.4v-21.5h-9v22.8c0 3.7.7 7.4 2 11.2s3.4 7 6.3 9.5c2.8 2.5 6.2 4.3 10.1 5.5 3.9 1.1 9 1.7 15.4 1.7h58.1 6 28.1 2.3 31.8 2.3 23.7v-91.5h-9v82.4z"/><path d="m1187.6 368.8h9v91.5h-9z"/></g><path d="m905 139.8c0 4.5-1.5 8.5-3.9 11.9l19.3 28.3 44.8.3 9.5.1 3.2-6.9 15.8-34.1-28.2-38.5-49.9-2.1-16.7 26.5c3.7 3.7 6.1 8.8 6.1 14.5z" fill="url(#b)"/><path d="m884.7 119.5c2.5 0 4.8.5 7 1.3l16.4-25.9-24.3-27.9-7.7.6-38 2.8-26.1 33.5 20.7 33.4 19.3-1.5 13.1-1c2.3-8.8 10.1-15.3 19.6-15.3z" fill="url(#c)"/><path d="m853.3 234.3 33.4-1 2-3.7 24.5-45.1-18.4-27.1c-3 1.7-6.4 2.8-10.1 2.8-10 0-18.3-7.3-19.9-16.9l-12 .9-19.8 1.5-26.7 44.7 12.2 21.6c2.3-.6 4.7-1 7.2-1 13.8.1 25.3 10.1 27.6 23.3z" fill="url(#d)"/><path d="m853.6 242.6c-1.7 13.9-13.5 24.7-27.9 24.7-1.9 0-3.7-.2-5.5-.5l-14.5 29.5h-.1l25.2 42h61.3l26.4-45.5-31.6-51.1z" fill="url(#e)"/><path d="m974.9 188.8-5.3-.1-49-.3-25.7 47.4-.8 1.4 29.2 47.3 55.2-1.6 23.6-48.8-13.6-22.7z" fill="url(#f)"/><path d="m995.5 72.5-8.1-1.6-8.5 14.8-6.3 10.8 28.2 38.5 20.8 3 22.2 3.1 8-24.5 1.5-4.8-27.7-33.5z" fill="url(#g)"/><path d="m1053.1 188.4c0-5.4 2.7-10.2 6.9-13l-15.3-24.9-.5-.9-22.4-3.2-20.9-3-17.6 37.9-1.3 2.9 13.6 22.7 13.6 22.7 44.4.1 1.4-3.8 8.6-22.9c-6-2-10.5-7.8-10.5-14.6z" fill="url(#h)"/><path d="m1084.2 186.1 10.3 1.1 9 1 5.2-28.6-18.3-30.6-3.3-5.5-3.8-1.1-22.5-6.3-1.5 4.7-7.9 24.4.7 1.1 16.3 26.5h.5c7.7-.1 14.1 5.7 15.3 13.3z" fill="url(#i)"/><path d="m1103.9 196.7-9.4-1-11.3-1.2c-1.9 4.5-5.9 7.9-10.7 9.1l-7.5 20-3.9 10.3 19.9 41.5 28.6-2.9 10.4-37.2z" fill="url(#j)"/><path d="m1116.2 164.7-5 27.6 16.1 38.5 12.9.1 2.5-28.3-12.9-32-7.4-3.2z" fill="url(#k)"/><path d="m1148.9 195-1.9-10.3-6.3-19.8-4.1-12-.7-.7 1.2 14.2z" fill="url(#l)"/><path d="m1151.5 209.6-.4-.2-.5-.3-2.3 25.8 6.3 29.6.9-.3 1.8-25.9z" fill="url(#m)"/><path d="m1127.8 239.2h-.2l-10.2 36.5 21.8 34.6 5.1-9.3 2.8-31-6.5-30.7z" fill="url(#n)"/><path d="m1032.7 73.7 27.7 33.6 25.8 7.2 1.9-14.7-16-18.7-8.6-10.1-25.3-10.2z" fill="url(#o)"/><path d="m1095.2 95.3 9.5 5.7-.4-1.6-27.8-30.5-6.2-4.1-.1 1.2 9.2 10.7z" fill="url(#p)"/><path d="m1096 105.6-1.4 14.2 21.3 35.7 5.6 2.4 6.7 2.9-1.4-16.2-.1-1.3-10.4-17-8-13.3-6.8-4.1z" fill="url(#q)"/><path d="m945.6 42.2-33.4-2.6h-.4l-20.6 23.2 24.1 27.7 50 2.1 6.3-10.8 8.4-14.6-13.7-12.8-5.5-5.1c-1.3.5-2.6.8-4.1.8-5.2-.2-9.5-3.4-11.1-7.9z" fill="url(#r)"/><path d="m967 43.6 6.8 6.3 13.5 12.5 38.1 7.3 5.6-13.1-25-21.5-34.2-8-.3.4-4.6 5.2c.9 1.7 1.5 3.5 1.5 5.6-.1 1.8-.6 3.6-1.4 5.3z" fill="url(#s)"/><path d="m1062 61.3v-2.3l-22.3-18.6-22.3-13.1-3.4 3.6 24.1 20.8z" fill="url(#t)"/><path d="m906.2 9.5-12.7 8.3 18 13.4 34.2 2.7c1.7-4.3 5.9-7.4 10.9-7.4 1.4 0 2.7.3 3.9.7l2.5-2.7.9-1-18.9-11.7-38.2-2.3z" fill="url(#u)"/><path d="m907.2 1.1 34.7 1.7-4.1-.7-34.1-2.1 2.7 1.1z" fill="url(#v)"/><path d="m885 21.9-39.6 4.1-21.7 19.4 3.4 4.1 10.7 12.5 37.8-2.8 8-.6 20.2-22.8-1-.8z" fill="url(#w)"/><path d="m844.5 17.7 40.2-4.2 4.1-2.7 7.3-4.8-6.6-2.7-38.3 3.6-12.8 7.4 5.4 3z" fill="url(#x)"/><path d="m972 18.5 34.6 8.1 2.3-2.5 1-1-4.1-2.3-47.3-15-3.8 2.1 2.3 1.4z" fill="url(#y)"/><path d="m758 95.3 5.7 13.6 30.4-6.7 10.4-2.3 26.1-33.5-11.9-14-2.1-2.5-37.3 9-20.1 22.9c.9 1.8 1.5 3.7 1.5 5.9-.1 2.8-1.1 5.5-2.7 7.6z" fill="url(#z)"/><path d="m748.1 75.1c1.7 0 3.2.3 4.7.9l19-21.4-3.2-5.3-.5-.8-22.8 10.5-19.6 20.2-5.2 5.6 1.5 8.8 13.5-5.8c0-7.1 5.6-12.7 12.6-12.7z" fill="url(#A)"/><path d="m767.5 39.6.8-.6 1.9-1.5-7.4 4.3.5-.3z" fill="url(#B)"/><path d="m815.5 40.8 20.9-18.1-.5-.2-6.5-3.7-32.8 8.6-15 11.8-6.4 5 3.7 6.1z" fill="url(#C)"/><path d="m763.8 117.5-10.5 16.7-14 22.5 15.3 35 42.6-5 1.7-.2 26.2-44.8-20.3-33.3-9.4 2.1z" fill="url(#D)"/><path d="m710.8 158.1 13.8-3.5 7.2-1.8 14.7-23.5 9.9-15.8-5.6-13.5c-.9.2-1.8.3-2.8.3-3.8 0-7.2-1.7-9.5-4.4l-17.7 8-16.8 26.1-4.7 7.2 3.5 16.3c3.1.7 5.9 2.4 8 4.6z" fill="url(#E)"/><path d="m667.2 207.5 11.9-2.9 10.2-23.4c-3.6-2.9-5.9-7.3-5.9-12.2 0-7 4.6-12.9 10.9-15l-2.4-11.2-11.7 6.4-1.9 1-14.6 34 1.8 23.8z" fill="url(#F)"/><path d="m714.3 98.6-1.3-8-7.9 5.6-4.7 3.3-19.9 29.6-.8 10.7 12.2-6.6z" fill="url(#G)"/><path d="m699.3 184.8c-.8 0-1.5-.1-2.3-.2l-10.4 23.8 10.3 34.4 30.1-3.2 13-27.7 7.4-15.8-2.6-5.9-12.6-28.8-7.7 2-9.6 2.5c.2 1 .3 2.1.3 3.2 0 8.6-7.1 15.7-15.9 15.7z" fill="url(#H)"/><path d="m797.6 239.2c0-10 5.3-18.8 13.2-23.8l-11.6-20.5-3.9.5-40.5 4.8-7.4 15.8-12.9 27.6 21 44.3h45.1l11.8-23.9c-8.9-4.9-14.8-14.1-14.8-24.8z" fill="url(#I)"/><path d="m697.8 251.2-11.2 37.6 16.7 37.8 30.2 3.8 14.7-38.2-20.9-43.4z" fill="url(#J)"/><path d="m655.9 192.4-5.9 5.5c-2.1 10.1-6 31.6-5.5 52.9l3.9-.1 9.1-37.8z" fill="url(#K)"/><path d="m679.2 213.2-9.5 2.3-4.5 1.1-8.3 34.5 8 32 14.1 1.5 10.5-37.3z" fill="url(#L)"/></svg>