<svg id="Group_6" data-name="Group 6" xmlns="http://www.w3.org/2000/svg" xmlns:xlink="http://www.w3.org/1999/xlink" width="336.939" height="83.631" viewBox="0 0 336.939 83.631">
  <defs>
    <clipPath id="clip-path">
      <rect id="Rectangle_10" data-name="Rectangle 10" width="336.939" height="83.631" fill="none"/>
    </clipPath>
  </defs>
  <g id="Group_5" data-name="Group 5" clip-path="url(#clip-path)">
    <path id="Path_135" data-name="Path 135" d="M345.384,38.229h.026c1.892,0,3.763.069,5.57.2.127,1.754.2,3.616.2,5.567s-.07,3.812-.2,5.567c-1.807.132-3.679.2-5.571.2h-.026c-1.891,0-3.763-.068-5.57-.2-.127-1.756-.2-3.616-.2-5.567s.071-3.813.2-5.567c1.807-.131,3.679-.2,5.57-.2" transform="translate(-50.285 -5.66)" fill="#fff"/>
    <rect id="Rectangle_9" data-name="Rectangle 9" width="11.793" height="2.475" transform="translate(289.312 36.186)" fill="#04594d"/>
    <path id="Path_136" data-name="Path 136" d="M342.483,64.336a23.407,23.407,0,1,1,23.2-23.406,23.33,23.33,0,0,1-23.2,23.406m0-45.271A21.866,21.866,0,1,0,364.144,40.93a21.789,21.789,0,0,0-21.661-21.865" transform="translate(-47.274 -2.595)" fill="#fff"/>
    <path id="Path_137" data-name="Path 137" d="M342.483,57.915c-12.794,0-23.2-7.013-23.2-15.633s10.407-15.633,23.2-15.633,23.2,7.012,23.2,15.633-10.407,15.633-23.2,15.633m0-29.725c-11.944,0-21.661,6.321-21.661,14.092s9.717,14.092,21.661,14.092,21.661-6.322,21.661-14.092S354.427,28.19,342.483,28.19" transform="translate(-47.274 -3.946)" fill="#fff"/>
    <path id="Path_138" data-name="Path 138" d="M342.483,50.4c-11.53,0-23.2-2.245-23.2-6.534s11.672-6.535,23.2-6.535,23.2,2.245,23.2,6.535-11.672,6.534-23.2,6.534m0-11.528c-13.421,0-21.661,2.909-21.661,4.994s8.24,4.993,21.661,4.993,21.661-2.908,21.661-4.993-8.24-4.994-21.661-4.994" transform="translate(-47.274 -5.527)" fill="#fff"/>
    <path id="Path_139" data-name="Path 139" d="M343.8,64.168c-8.619,0-15.632-10.409-15.632-23.2s7.013-23.2,15.632-23.2,15.632,10.409,15.632,23.2-7.013,23.2-15.632,23.2m0-44.864c-7.771,0-14.092,9.717-14.092,21.661s6.321,21.661,14.092,21.661S357.89,52.91,357.89,40.965,351.569,19.3,343.8,19.3" transform="translate(-48.589 -2.63)" fill="#fff"/>
    <path id="Path_140" data-name="Path 140" d="M345.379,64.168c-4.29,0-6.535-11.672-6.535-23.2s2.245-23.2,6.535-23.2,6.533,11.672,6.533,23.2-2.243,23.2-6.533,23.2m0-44.864c-2.086,0-4.995,8.241-4.995,21.661s2.909,21.661,4.995,21.661,4.994-8.241,4.994-21.661S347.465,19.3,345.379,19.3" transform="translate(-50.17 -2.63)" fill="#fff"/>
    <path id="Path_141" data-name="Path 141" d="M346.624,82.467a16.1,16.1,0,0,0-6.938-5.715c-3.105-1.4-6.4-2.148-9.263-3.571a18.835,18.835,0,0,0-1.372-4.855,15.438,15.438,0,0,0-4.415-5.72s-1.287,1.6,1.619,7.289a8.517,8.517,0,0,0,1.881,2.427,29.187,29.187,0,0,1-5.987-2.065,18.933,18.933,0,0,0-.125-5.125,15.91,15.91,0,0,0-2.866-6.707s-1.643,1.193-.231,7.46a15.005,15.005,0,0,0,1.515,3.408,36.817,36.817,0,0,1-5.6-4.137A18.467,18.467,0,0,0,316,60.148a16.121,16.121,0,0,0-1.121-7.236s-1.884.7-2.064,7.121a15.417,15.417,0,0,0,.671,3.846,35.931,35.931,0,0,1-4.557-5.532,17.279,17.279,0,0,0,2.468-4.634,16.06,16.06,0,0,0,.7-7.274s-2,.165-3.757,6.3a15.711,15.711,0,0,0-.277,4.245,35.037,35.037,0,0,1-3.191-6.853,15.9,15.9,0,0,0,3.654-3.863A15.735,15.735,0,0,0,311,39.451s-1.977-.384-5.193,5.045a15.386,15.386,0,0,0-1.361,4.278,35.207,35.207,0,0,1-1.21-5.955c-.06-.527-.1-1.052-.141-1.577a14.977,14.977,0,0,0,4.419-2.933,15.207,15.207,0,0,0,3.814-6.066s-1.86-.826-6.119,3.721a14.887,14.887,0,0,0-2.184,3.8,35.536,35.536,0,0,1,.635-7.754A14.47,14.47,0,0,0,308.7,30.4a14.659,14.659,0,0,0,5.215-4.784s-1.6-1.3-6.861,1.9a14.321,14.321,0,0,0-3.1,3.092,36.194,36.194,0,0,1,2.52-7.2,14,14,0,0,0,5.307-.6,14.2,14.2,0,0,0,5.952-3.7s-1.361-1.579-7.1.557a13.885,13.885,0,0,0-3.438,2.308,36.878,36.878,0,0,1,4.206-6.3,15.63,15.63,0,0,0,4.823.789,13.478,13.478,0,0,0,6.5-1.732s-.859-1.835-6.757-1.479a12.58,12.58,0,0,0-3.234.906A36.555,36.555,0,0,1,317.827,9.6a14.066,14.066,0,0,0,4.573,1.045,12.435,12.435,0,0,0,6.064-1.236s-.732-1.716-6.194-1.7a10.149,10.149,0,0,0-2.316.433c1.156-.731,3.035-1.7,4.123-2.248a12.12,12.12,0,0,0,5.746-1.154c1.22-.519,3.81-2.448,3.726-2.851-.139-.674-3.657-.243-4.734.205-4.011,1.669-4.672,3.185-4.782,3.646a23.112,23.112,0,0,0-4.777,2.577,16.961,16.961,0,0,0,3.467-3.376c.927-1.179,2.482-4.5,2.2-4.848-.471-.585-3.674,1.767-4.5,2.8-3.68,4.612-2.777,6.365-2.777,6.365l.016-.007a.248.248,0,0,0-.031.164l.006.014a37.61,37.61,0,0,0-4.128,3.5,20.074,20.074,0,0,0,1.814-3.336c.639-1.481,1.361-5.342.98-5.622-.636-.468-3.3,2.878-3.868,4.176-1.93,4.384-1.614,6.338-1.344,7.031a.309.309,0,0,0-.057.24.209.209,0,0,0,.076.1,37.005,37.005,0,0,0-3.667,5.177,19.946,19.946,0,0,0,1.182-4.408c.25-1.608-.008-5.545-.444-5.712-.727-.28-2.463,3.682-2.694,5.1-.969,5.951.492,7.29.666,7.427a36.085,36.085,0,0,0-2,4.988,21.392,21.392,0,0,0-.061-3.443c-.156-1.625-1.376-5.37-1.838-5.414-.769-.074-1.464,4.237-1.338,5.669.451,5.072,1.752,6.513,2.275,6.894a35.3,35.3,0,0,0-.628,4.839,21.8,21.8,0,0,0-.774-2.663c-.55-1.533-2.65-4.829-3.105-4.746-.758.137-.364,4.5.112,5.855,1.585,4.5,3.1,5.7,3.773,6.011.038.6.086,1.194.155,1.794q.17,1.486.452,2.918a21.458,21.458,0,0,0-1.3-2.172c-.908-1.336-3.743-3.959-4.162-3.755-.7.339.761,4.46,1.552,5.642,2.613,3.9,4.359,4.662,5.1,4.8a35.249,35.249,0,0,0,1.843,4.487,20.816,20.816,0,0,0-1.865-1.835c-1.2-1.047-4.582-2.818-4.934-2.507-.588.517,1.833,4.114,2.886,5.044,3.652,3.218,5.532,3.352,6.2,3.249a35.614,35.614,0,0,0,3.277,4.2,19.6,19.6,0,0,0-2.747-1.608c-1.418-.688-5.108-1.487-5.371-1.09-.439.66,2.78,3.488,4.025,4.1,4.765,2.35,6.516,1.638,6.921,1.384a37.629,37.629,0,0,0,4.576,3.462,18.539,18.539,0,0,0-3.58-1.017c-1.535-.28-5.286-.054-5.441.4-.259.759,3.538,2.624,4.888,2.882,5.354,1.018,6.783-.268,7.039-.573a39.318,39.318,0,0,0,4.71,2.1,18.483,18.483,0,0,0-3.179.034c-1.548.145-5.1,1.384-5.141,1.867-.062.806,4.056,1.583,5.42,1.466,3.272-.283,4.947-.993,5.8-1.59,6.027,1.173,14.46,4.409,15.548,8.868l1.425-1.111c-.012-.018-.024-.035-.035-.053" transform="translate(-44.053 0)" fill="#fff"/>
    <path id="Path_142" data-name="Path 142" d="M337.867,82.467a16.1,16.1,0,0,1,6.938-5.715c3.105-1.4,6.4-2.148,9.263-3.571a18.834,18.834,0,0,1,1.372-4.855,15.438,15.438,0,0,1,4.415-5.72s1.287,1.6-1.619,7.289a8.517,8.517,0,0,1-1.881,2.427,29.186,29.186,0,0,0,5.987-2.065,18.934,18.934,0,0,1,.125-5.125,15.9,15.9,0,0,1,2.867-6.707s1.642,1.193.23,7.46a15.036,15.036,0,0,1-1.514,3.408,36.849,36.849,0,0,0,5.6-4.137,18.468,18.468,0,0,1-1.16-5.008,16.122,16.122,0,0,1,1.121-7.236s1.884.7,2.064,7.121A15.415,15.415,0,0,1,371,63.878a35.931,35.931,0,0,0,4.557-5.532,17.278,17.278,0,0,1-2.468-4.634,16.06,16.06,0,0,1-.7-7.274s2,.165,3.757,6.3a15.678,15.678,0,0,1,.277,4.245,35.039,35.039,0,0,0,3.19-6.853,15.9,15.9,0,0,1-3.654-3.863,15.734,15.734,0,0,1-2.472-6.815s1.977-.384,5.193,5.045a15.385,15.385,0,0,1,1.361,4.278,35.21,35.21,0,0,0,1.21-5.955c.06-.527.1-1.052.141-1.577a14.977,14.977,0,0,1-4.419-2.933,15.22,15.22,0,0,1-3.814-6.066s1.86-.826,6.119,3.721a14.887,14.887,0,0,1,2.184,3.8,35.535,35.535,0,0,0-.635-7.754,14.47,14.47,0,0,1-5.047-1.607,14.659,14.659,0,0,1-5.215-4.784s1.6-1.3,6.861,1.9a14.32,14.32,0,0,1,3.1,3.092,36.194,36.194,0,0,0-2.52-7.2,14,14,0,0,1-5.307-.6,14.2,14.2,0,0,1-5.952-3.7s1.361-1.579,7.1.557a13.886,13.886,0,0,1,3.438,2.308,36.878,36.878,0,0,0-4.206-6.3,15.63,15.63,0,0,1-4.823.789,13.478,13.478,0,0,1-6.5-1.732s.859-1.835,6.757-1.479a12.581,12.581,0,0,1,3.234.906A36.557,36.557,0,0,0,366.664,9.6a14.067,14.067,0,0,1-4.573,1.045,12.435,12.435,0,0,1-6.064-1.236s.732-1.716,6.194-1.7a10.149,10.149,0,0,1,2.316.433c-1.156-.731-3.035-1.7-4.123-2.248a12.121,12.121,0,0,1-5.746-1.154c-1.22-.519-3.81-2.448-3.726-2.851.139-.674,3.657-.243,4.734.205,4.011,1.669,4.672,3.185,4.782,3.646a23.113,23.113,0,0,1,4.777,2.577,16.962,16.962,0,0,1-3.467-3.376c-.927-1.179-2.482-4.5-2.2-4.848.471-.585,3.674,1.767,4.5,2.8,3.68,4.612,2.777,6.365,2.777,6.365l-.016-.007a.248.248,0,0,1,.031.164l-.006.014a37.607,37.607,0,0,1,4.128,3.5,20.074,20.074,0,0,1-1.814-3.336c-.639-1.481-1.361-5.342-.98-5.622.636-.468,3.3,2.878,3.868,4.176,1.93,4.384,1.614,6.338,1.344,7.031a.309.309,0,0,1,.057.24.209.209,0,0,1-.076.1,37.01,37.01,0,0,1,3.667,5.177,19.946,19.946,0,0,1-1.182-4.408c-.25-1.608.008-5.545.444-5.712.727-.28,2.463,3.682,2.694,5.1.969,5.951-.492,7.29-.666,7.427a36.093,36.093,0,0,1,2,4.988,21.4,21.4,0,0,1,.061-3.443c.156-1.625,1.376-5.37,1.838-5.414.769-.074,1.464,4.237,1.338,5.669-.452,5.072-1.752,6.513-2.275,6.894a35.307,35.307,0,0,1,.628,4.839,21.784,21.784,0,0,1,.774-2.663c.55-1.533,2.65-4.829,3.105-4.746.758.137.364,4.5-.112,5.855-1.585,4.5-3.1,5.7-3.773,6.011-.038.6-.086,1.194-.155,1.794q-.17,1.486-.452,2.918a21.453,21.453,0,0,1,1.3-2.172c.908-1.336,3.743-3.959,4.162-3.755.7.339-.761,4.46-1.552,5.642-2.613,3.9-4.359,4.662-5.1,4.8a35.24,35.24,0,0,1-1.843,4.487,20.819,20.819,0,0,1,1.865-1.835c1.2-1.047,4.582-2.818,4.934-2.507.588.517-1.833,4.114-2.886,5.044-3.652,3.218-5.532,3.352-6.2,3.249a35.617,35.617,0,0,1-3.277,4.2,19.6,19.6,0,0,1,2.747-1.608c1.418-.688,5.108-1.487,5.371-1.09.439.66-2.78,3.488-4.025,4.1-4.765,2.35-6.516,1.638-6.921,1.384a37.634,37.634,0,0,1-4.576,3.462,18.539,18.539,0,0,1,3.58-1.017c1.535-.28,5.286-.054,5.441.4.259.759-3.538,2.624-4.888,2.882-5.354,1.018-6.783-.268-7.039-.573a39.322,39.322,0,0,1-4.71,2.1,18.483,18.483,0,0,1,3.179.034c1.548.145,5.1,1.384,5.141,1.867.062.806-4.056,1.583-5.42,1.466-3.272-.283-4.947-.993-5.8-1.59-6.027,1.173-14.46,4.409-15.548,8.868l-1.425-1.111c.012-.018.024-.035.035-.053" transform="translate(-50.021 0)" fill="#fff"/>
    <path id="Path_143" data-name="Path 143" d="M8.116,91.246H8.062L5.126,83.159a4.238,4.238,0,0,0-.213-.483.878.878,0,0,0-.268-.309,1.136,1.136,0,0,0-.374-.173,2.239,2.239,0,0,0-.568-.059H0v1.332H.747a.437.437,0,0,1,.481.5v9.458a.438.438,0,0,1-.481.5L0,93.947v1.332H3.933V93.947H3.168c-.3,0-.463-.174-.463-.5V84.837h.054l3.79,10.441h1.6l3.809-10.5h.052v8.666c0,.328-.158.5-.479.5h-.749v1.332h5.339V93.947h-.746a.438.438,0,0,1-.481-.5V83.988a.437.437,0,0,1,.481-.5h.746V82.155H11.461Zm18.591-7.778h.749a.436.436,0,0,1,.48.5V90.3a4.482,4.482,0,0,1-.676,2.759,2.557,2.557,0,0,1-2.119.849,4.162,4.162,0,0,1-1.28-.174,1.954,1.954,0,0,1-.891-.579,2.548,2.548,0,0,1-.515-1.1,7.624,7.624,0,0,1-.159-1.7v-6.33c0-.328.159-.5.479-.5h.749V82.194H18.166v1.332h.747a.438.438,0,0,1,.481.5l-.018-.039v6.524a5.015,5.015,0,0,0,1.263,3.744,5.775,5.775,0,0,0,4.111,1.216,4.444,4.444,0,0,0,3.487-1.293,5.435,5.435,0,0,0,1.176-3.764V83.968c0-.328.159-.5.462-.5h.765V82.135H26.707Zm13.575,5.095a5.3,5.3,0,0,0-1.211-.81c-.462-.232-1-.463-1.583-.7q-.455-.173-.854-.347a3.123,3.123,0,0,1-.694-.406,1.5,1.5,0,0,1-.623-1.293,1.4,1.4,0,0,1,.516-1.158,2.668,2.668,0,0,1,1.655-.4,2.354,2.354,0,0,1,1.654.463,1.736,1.736,0,0,1,.392,1.254v.463h1.388V83.042a.6.6,0,0,0-.159-.463,1.189,1.189,0,0,0-.429-.232,8.653,8.653,0,0,0-1.174-.251,9.787,9.787,0,0,0-1.531-.115,5.934,5.934,0,0,0-3.648.964,3.275,3.275,0,0,0-1.246,2.779A4.36,4.36,0,0,0,33,87.346a3.335,3.335,0,0,0,.711,1.119,4.014,4.014,0,0,0,1.086.792c.427.211.891.424,1.388.618.446.173.836.328,1.176.481a3.777,3.777,0,0,1,.819.5,1.6,1.6,0,0,1,.641,1.37A1.576,1.576,0,0,1,38.2,93.6a3.14,3.14,0,0,1-1.815.443,4.917,4.917,0,0,1-1.174-.115,1.4,1.4,0,0,1-.7-.387,1.841,1.841,0,0,1-.427-1.37v-.483l-1.37-.058v2.76a.674.674,0,0,0,.124.463.92.92,0,0,0,.375.231,7.912,7.912,0,0,0,1.548.29c.586.059,1.157.1,1.707.1a7.189,7.189,0,0,0,1.994-.27,4.326,4.326,0,0,0,1.548-.791,3.476,3.476,0,0,0,.98-1.313,4.393,4.393,0,0,0,.337-1.8,4.338,4.338,0,0,0-.268-1.62,3,3,0,0,0-.782-1.12M51.3,92.789c0,.676-.3,1-.89,1h-2.67v-9.8a.437.437,0,0,1,.48-.5h.872V82.155h-5.48v1.332h.747a.436.436,0,0,1,.48.5v9.457c0,.328-.159.5-.48.5h-.747v1.332h8.614c.3,0,.462-.174.462-.521V91.592H51.3Zm3.377-9.3h.749c.319,0,.479.173.479.5v9.457c0,.328-.159.5-.479.5h-.749v1.332H60.03V93.947h-.747a.438.438,0,0,1-.481-.5V83.988a.437.437,0,0,1,.481-.5h.747V82.155H54.673Zm15.641,7.759H70.26l-2.936-8.087a4.382,4.382,0,0,0-.214-.483.885.885,0,0,0-.268-.309,1.133,1.133,0,0,0-.375-.173,2.239,2.239,0,0,0-.568-.059H62.2v1.332h.747a.437.437,0,0,1,.481.5v9.458a.438.438,0,0,1-.481.5l-.747.019v1.332h3.933V93.947h-.764c-.3,0-.464-.174-.464-.5V84.837h.055l3.789,10.441h1.6l3.809-10.5h.053v8.666c0,.328-.159.5-.48.5h-.749v1.332h5.34V93.947h-.747a.438.438,0,0,1-.481-.5V83.988a.437.437,0,0,1,.481-.5h.747V82.155H73.659Zm29.163-7.778h.819c.3,0,.444.135.444.386a1.255,1.255,0,0,1-.017.232c-.018.1-.037.173-.055.251l-2.01,8.183H98.6L96.094,82.135H93.6L91.058,92.519H91l-1.994-8.183c-.019-.078-.036-.155-.054-.251a1.2,1.2,0,0,1-.018-.232c0-.251.142-.386.428-.386h.819V82.135H84.811v1.332h.337a.7.7,0,0,1,.481.135.871.871,0,0,1,.231.406h-.035L88.94,95.3h2.847l2.35-9.226h.054L96.521,95.3H99.35l3.062-11.291a.878.878,0,0,1,.231-.406.7.7,0,0,1,.48-.135h.32V82.135H99.476Zm17.665,2.2a7.717,7.717,0,0,1,.481,2.856,8.548,8.548,0,0,1-.463,2.875,6.317,6.317,0,0,1-1.281,2.182,5.715,5.715,0,0,1-1.975,1.39,6.323,6.323,0,0,1-2.526.483,7.614,7.614,0,0,1-2.546-.406,5.31,5.31,0,0,1-1.975-1.216,5.736,5.736,0,0,1-1.3-2.026,7.694,7.694,0,0,1-.48-2.837h-.037a8.758,8.758,0,0,1,.463-2.9,6.221,6.221,0,0,1,1.281-2.2,5.7,5.7,0,0,1,1.975-1.39,6.414,6.414,0,0,1,2.546-.5,7.62,7.62,0,0,1,2.544.4,5.1,5.1,0,0,1,1.976,1.235,6.012,6.012,0,0,1,1.317,2.046M114.561,88.6a6.618,6.618,0,0,0-.872-3.879,2.839,2.839,0,0,0-2.4-1.2,2.974,2.974,0,0,0-1.335.29,2.624,2.624,0,0,0-1.015.926,4.6,4.6,0,0,0-.641,1.641,11.9,11.9,0,0,0-.214,2.431,6.964,6.964,0,0,0,.854,3.918,2.756,2.756,0,0,0,2.385,1.216l-.035.02a2.738,2.738,0,0,0,2.42-1.274,7.548,7.548,0,0,0,.854-4.092m16.422,5.018a1.75,1.75,0,0,0,.96.309V95.26h-1.868a3.428,3.428,0,0,1-.943-.116,2.876,2.876,0,0,1-.729-.328,2.551,2.551,0,0,1-.588-.521,4.713,4.713,0,0,1-.5-.753L125.2,89.624h-1.193v3.821a.437.437,0,0,0,.48.5h.747v1.332h-5.357V93.947l.732.039c.319,0,.479-.175.479-.5V84.027c0-.328-.159-.5-.479-.5h-.749V82.194h6.317a4.747,4.747,0,0,1,3.008.83,2.86,2.86,0,0,1,1.068,2.393,2.715,2.715,0,0,1-.233,1.158,3.519,3.519,0,0,1-.6.927,4.341,4.341,0,0,1-.837.694,3.8,3.8,0,0,1-.908.424l2.544,4.111a3,3,0,0,0,.767.888m-3.72-7.739a2.163,2.163,0,0,0-.606-1.737A2.471,2.471,0,0,0,125,83.622h-1.015v4.652l.767.019c1.672,0,2.509-.81,2.509-2.412m14,6.909c0,.676-.3,1-.89,1H137.7v-9.8a.437.437,0,0,1,.481-.5h.871V82.155h-5.481v1.332h.749a.436.436,0,0,1,.48.5v9.457c0,.328-.159.5-.48.5h-.749v1.332h8.615c.3,0,.463-.174.463-.521V91.592h-1.388Zm15.212-7.315a7.05,7.05,0,0,1,.534,2.895,7.932,7.932,0,0,1-.534,3.029,6.167,6.167,0,0,1-1.441,2.162,5.81,5.81,0,0,1-2.189,1.293,8.6,8.6,0,0,1-2.776.424h-5.427V93.947l.764-.058a.438.438,0,0,0,.481-.5V83.93a.437.437,0,0,0-.481-.5h-.747V82.1h5.712a9.161,9.161,0,0,1,2.544.348,5.811,5.811,0,0,1,2.119,1.1,5.257,5.257,0,0,1,1.441,1.93m-2.546,3.069a7.571,7.571,0,0,0-.319-2.373,4.254,4.254,0,0,0-.854-1.545,3.073,3.073,0,0,0-1.3-.849,5.162,5.162,0,0,0-1.673-.251h-1V93.793h.978l-.035.019a4.711,4.711,0,0,0,1.672-.29,3.428,3.428,0,0,0,1.335-.906,4.254,4.254,0,0,0,.872-1.621,8.191,8.191,0,0,0,.319-2.451m18.077,4.246c0,.676-.3,1-.891,1h-2.67v-9.8a.437.437,0,0,1,.481-.5h.872V82.155h-5.481v1.332h.749a.436.436,0,0,1,.48.5v9.457c0,.328-.159.5-.48.5h-.749v1.332h8.615c.3,0,.462-.174.462-.521V91.592h-1.387Zm11.564,0a1.154,1.154,0,0,1-.215.752.841.841,0,0,1-.693.251h-3.151V89.335h1.745c.3,0,.463.173.463.5v.773h1.387V86.574h-1.387v.752c0,.348-.161.522-.463.522h-1.745V83.64h2.866c.588,0,.89.328.89,1v.7h1.388V82.676c0-.348-.159-.521-.462-.521h-8.81v1.332h.747a.436.436,0,0,1,.48.5v9.457c0,.328-.159.5-.48.5h-.747v1.332h9.093c.3,0,.463-.174.463-.521V91.9h-1.37Zm15.3,1.177h.283V95.3h-5.32V93.967h.819c.3,0,.445-.135.445-.386a1.1,1.1,0,0,0-.035-.212c-.018-.078-.037-.175-.055-.271l-.693-2.045h-4.272l-.676,2.045c-.017.1-.037.174-.054.251a1.062,1.062,0,0,0-.035.212c0,.25.141.386.444.386h.819v1.332h-3.933V93.947l.3.02a.62.62,0,0,0,.463-.135,1.069,1.069,0,0,0,.214-.4l3.95-11.31h2.722l3.933,11.31a1.045,1.045,0,0,0,.213.4.621.621,0,0,0,.464.135m-5.02-4.342-1.62-4.806h-.07l-1.62,4.806Zm13.947.888h.873c.32,0,.48.173.48.5l.072-.039v2.7a3.99,3.99,0,0,1-.588.174,4.506,4.506,0,0,1-1,.1,3.523,3.523,0,0,1-2.884-1.274,6.155,6.155,0,0,1-1.05-3.937,6.153,6.153,0,0,1,1.067-4,3.577,3.577,0,0,1,2.9-1.274,6.431,6.431,0,0,1,1.37.116,1.775,1.775,0,0,1,.8.366,1.6,1.6,0,0,1,.445,1.254v.521h1.372v-2.7a.585.585,0,0,0-.143-.444,1.208,1.208,0,0,0-.41-.213,9.09,9.09,0,0,0-1.388-.29,14.585,14.585,0,0,0-1.975-.115,8.6,8.6,0,0,0-2.884.463,6.2,6.2,0,0,0-2.242,1.371,6.481,6.481,0,0,0-1.477,2.181,7.587,7.587,0,0,0-.533,2.933,8.332,8.332,0,0,0,.462,2.857,5.169,5.169,0,0,0,1.335,2.064,6.043,6.043,0,0,0,2.137,1.254,8.614,8.614,0,0,0,2.829.425c.446,0,.907-.019,1.371-.057l1.333-.117c.429-.038.8-.1,1.139-.154a5.077,5.077,0,0,0,.838-.212V91.014c0-.329.159-.5.48-.5h.623V89.18H207.8Zm15.816-7.045h.749a.436.436,0,0,1,.48.5V90.3a4.481,4.481,0,0,1-.676,2.759,2.555,2.555,0,0,1-2.118.849,4.164,4.164,0,0,1-1.281-.174,1.947,1.947,0,0,1-.89-.579,2.549,2.549,0,0,1-.516-1.1,7.675,7.675,0,0,1-.159-1.7v-6.33c0-.328.159-.5.48-.5h.749V82.194h-5.358v1.332h.747a.438.438,0,0,1,.481.5l-.017-.039v6.524a5.018,5.018,0,0,0,1.263,3.744,5.775,5.775,0,0,0,4.111,1.216,4.444,4.444,0,0,0,3.487-1.293,5.431,5.431,0,0,0,1.176-3.764V83.968c0-.328.159-.5.463-.5h.764V82.135h-3.933Zm14.165,9.322a1.159,1.159,0,0,1-.214.752.846.846,0,0,1-.694.251h-3.151V89.335h1.745c.3,0,.463.173.463.5v.773h1.388V86.574h-1.388v.752c0,.348-.161.522-.463.522h-1.745V83.64h2.866c.588,0,.891.328.891,1v.7h1.387V82.676c0-.348-.161-.521-.462-.521H229.6v1.332h.749a.436.436,0,0,1,.48.5v9.457c0,.328-.159.5-.48.5H229.6v1.332h9.094c.3,0,.463-.174.463-.521V91.9h-1.37Z" transform="translate(0 -12.136)" fill="#fff"/>
    <path id="Path_144" data-name="Path 144" d="M219.692,37.712c-.8-2.2-2.232-4.056-3.012-6.362-.182-.54-.247-1.22-.846-1.371.316-1.1.62-2.212,1-3.249.144-.025.2.139.271.22.531.622,1.073,1.3,1.641,1.913a11.457,11.457,0,0,1,1.4,1.642c.122.194.33.449.135.711-.523-.054-.983-.4-1.506-.457a4.193,4.193,0,0,0,.372.779c.693,1.248,1.6,2.336,1.658,4.214a8.6,8.6,0,0,1-.253,2.081A5.926,5.926,0,0,1,219,40.977a8.418,8.418,0,0,1-1.371.981c-.48.3-.973.593-1.488.846a39.57,39.57,0,0,1-15.246,3.536,33.7,33.7,0,0,1-5.787-.118c-1.755-.2-3.568-.181-5.347-.372-.521.652-.878,1.439-1.388,2.166-.112.158-.368.561-.643.491s-.187-.563-.135-.779a12.175,12.175,0,0,1,.88-2.115,9.32,9.32,0,0,1-5.55-4.3c-.2-.313-.4-.671-.642-1s-.589-.749-.931-.829a2.012,2.012,0,0,0-1.421.406,10.433,10.433,0,0,0-4.518,5.364c-.549,1.325-1.079,2.685-1.625,4.027a7.056,7.056,0,0,1-2.352,3.3,2.448,2.448,0,0,1-2.217.3,4.514,4.514,0,0,1-1.692-1.134,10.176,10.176,0,0,1-2.1-3.553,20.231,20.231,0,0,1-.829-8.748,1.735,1.735,0,0,1,.355-1.05,1.631,1.631,0,0,1,.186,1.134c-.01.411-.035.86-.05,1.286a14.368,14.368,0,0,0,1.354,6.667,6.467,6.467,0,0,0,1.049,1.625,3.517,3.517,0,0,0,1.591,1.083,2.371,2.371,0,0,0,2.048-.457c1.54-1.125,2.312-3.029,3.029-5.009a20.743,20.743,0,0,1,1.658-3.688,13.1,13.1,0,0,1,1.134-1.54,11.485,11.485,0,0,1,3.622-3.063c.515-.259,1.23-.644,1.827-.254a7.135,7.135,0,0,1,1.522,1.963,8.24,8.24,0,0,0,1.608,1.861,9.256,9.256,0,0,0,4.2,1.879,2.515,2.515,0,0,0,.745.118c.08-.022.2-.26.3-.406.493-.7,1-1.375,1.506-2.03a5.839,5.839,0,0,0,.592-.813c.005-.009,0-.024,0-.034a5.329,5.329,0,0,0,.118-1.116,52.208,52.208,0,0,0-.287-8.105c-.54-6.027-1.071-10.9-1.725-16.786-.239-2.156-.515-4.393-.779-6.566a4.226,4.226,0,0,0-.338-1.489c-.056-.1-.23-.291-.237-.372a1.991,1.991,0,0,1,.169-.457c.285-.768.58-1.48.863-2.217a2.651,2.651,0,0,1,.389-.846,1.555,1.555,0,0,1,.271.525c.551,1.259,1.107,2.571,1.642,3.858a35.768,35.768,0,0,1,1.32,3.4,4.254,4.254,0,0,1,.135.66.913.913,0,0,1-.051.66c-.228.026-.373-.211-.491-.355-.257-.318-.512-.624-.778-.948-.118-.142-.236-.38-.457-.372a2.034,2.034,0,0,0,.034.88c.266,2.119.588,4.261.863,6.413.475,3.706.716,6.489,1.133,10.288.407,3.718.5,8.2-.508,11.4.136-.029.221-.2.321-.321a28.364,28.364,0,0,1,5.178-4.975,12.163,12.163,0,0,1,3.621-1.793,8.457,8.457,0,0,1,2.352-.355,7.948,7.948,0,0,1,2.335.372,9.359,9.359,0,0,1,3.486,1.929,5.78,5.78,0,0,1,1.235,1.472,3.5,3.5,0,0,1,.558,2.115,6.669,6.669,0,0,1-.643,2.064,8.856,8.856,0,0,1-2.115,3.3,8.766,8.766,0,0,1-1.659,1.117,31.27,31.27,0,0,0,10.864-4.4m-12.149,1.81a23.228,23.228,0,0,0,3.13-1.354c.17-.094.844-.452.863-.643a1.29,1.29,0,0,0-.254-.491,6.816,6.816,0,0,0-1.083-1.15,11,11,0,0,0-3.74-2.217,6.8,6.8,0,0,0-2.588-.389,8.7,8.7,0,0,0-3.96,1.235,15.6,15.6,0,0,0-2.927,2.2A40.764,40.764,0,0,0,192.5,41.84c-.075.1-.222.189-.2.338a39.717,39.717,0,0,0,15.246-2.656M165.9.846c-.434.984-.79,1.993-1.184,3.029a1.779,1.779,0,0,0-.17.44c.009.107.2.284.271.423a6.009,6.009,0,0,1,.355,1.726c.306,2.5.581,5.015.863,7.479.577,5.027,1.065,9.41,1.573,14.428.17,1.683.3,3.374.44,5.127.131,1.694.277,3.426.3,5.262.02,1.3.034,2.724.034,4.1,0,.307-.08,1.165.186,1.218.2.04.4-.454.508-.728a13.947,13.947,0,0,0,.779-3.063,46.42,46.42,0,0,0,.135-9.713c-.122-1.6-.269-3.163-.423-4.7-.594-5.948-1.281-11.32-2.029-17.118-.021-.166-.087-.387.034-.542.223.032.313.256.44.406.268.317.533.618.8.93.118.142.23.388.474.355a.935.935,0,0,0,.05-.659,7.466,7.466,0,0,0-.558-1.811c-.8-2.079-1.649-4.074-2.538-6.108-.078-.178-.177-.507-.288-.525a.087.087,0,0,0-.051.051m45.111.57c-.383.895-.785,1.778-1.117,2.673a6.393,6.393,0,0,0-.507,2.013,1.74,1.74,0,0,0,.761,1.726.888.888,0,0,0,.677,0,2.111,2.111,0,0,0,.88-1.1,3.172,3.172,0,0,0,.372-1.556c-.457.137-.37.993-.728,1.184a.771.771,0,0,1-.728-.152c-.642-.517-.369-1.711-.1-2.4s.593-1.376.83-2.081a2.122,2.122,0,0,0,.152-1.2h-.033a3.984,3.984,0,0,0-.457.9m-123,.084c-.311.8-.59,1.526-.9,2.335a2.469,2.469,0,0,0-.187.474c.005.124.161.235.22.321a1.511,1.511,0,0,1,.17.372A12.484,12.484,0,0,1,87.589,6.8c.245,1.834.481,3.711.693,5.5.592,5,1.263,9.831,1.659,14.891.2,2.564.45,5.084.524,7.749a10.849,10.849,0,0,1-1.658,6.583,21.834,21.834,0,0,1-3.943,4.331,36.349,36.349,0,0,1-7.5,4.907,22.666,22.666,0,0,0-2.03,1.067c-.193.123-.482.228-.508.508a3.52,3.52,0,0,0,1.591-.322c1.535-.442,3.082-.861,4.569-1.388,2.955-1.045,5.785-2.172,7.377-4.535a24.586,24.586,0,0,0,3.165-8.765,37.272,37.272,0,0,0,.693-7.242c0-1.291-.059-2.57-.135-3.841-.227-3.749-.745-7.184-1.2-10.728-.3-2.359-.688-4.687-.981-6.971A1.9,1.9,0,0,1,90.414,9c.311.349.616.7.913,1.049.141.164.266.41.508.44a2.651,2.651,0,0,0-.084-1.455c-.123-.438-.27-.859-.423-1.252-.947-2.441-1.9-4.791-2.876-7.225-.017,0-.02-.014-.034-.017-.141.274-.275.63-.406.964M157.955.8c.112.018.21.347.288.525.89,2.035,1.722,4.035,2.538,6.108a7.25,7.25,0,0,1,.558,1.811.929.929,0,0,1-.05.659c-.229.023-.368-.207-.491-.355-.256-.309-.516-.629-.779-.947-.121-.147-.235-.378-.457-.372A1.439,1.439,0,0,0,159.6,9c.514,3.965.987,7.786,1.43,11.839a120.625,120.625,0,0,1,1,13.436,21.032,21.032,0,0,1-.779,6.447,7.277,7.277,0,0,1-1.218,2.386,5.6,5.6,0,0,1-2.2,1.4,8.15,8.15,0,0,1-3.012.609,5.7,5.7,0,0,1-2.826-.778,31.812,31.812,0,0,1-4.1-3.114c-.4.291-.82.555-1.235.829a21.847,21.847,0,0,1-6.954,3.536,8.457,8.457,0,0,1-3.757.135,6.472,6.472,0,0,1-4.551-3.841,20.357,20.357,0,0,1-1.642-6.752c-.281-2.478-.565-5.045-.745-7.649-.177-2.573-.4-5.181-.643-7.75-.364-3.835-.932-8.153-1.593-11.693a24.893,24.893,0,0,0-.592-2.555,4.385,4.385,0,0,1-.254-.778,4.209,4.209,0,0,1,.287-.981l.3-.965c.213-.671.41-1.334.643-1.895a5.823,5.823,0,0,1,.609,1.354,26.64,26.64,0,0,1,1.117,4.738c.389,2.217.79,5.158,1.035,7.463.25,2.361.466,4.769.642,7.157.179,2.417.426,4.815.626,7.175.2,2.321.46,4.781.762,7.039.308,2.312,1.038,4.192,2.454,5.348a5.494,5.494,0,0,0,2.69,1.218,7.693,7.693,0,0,0,3.4-.355,23.852,23.852,0,0,0,5.178-2.623,11.63,11.63,0,0,0-2.978-2.3,3.44,3.44,0,0,0-2.2-.288,4.039,4.039,0,0,0-1.371.609c-.128.083-.348.233-.457.17-.2-.113.135-.836.187-.981.3-.834.557-1.551.913-2.352a1.41,1.41,0,0,1,.254-.457,13.481,13.481,0,0,1,1.743-.8,17.771,17.771,0,0,1,6.295-1.269,18.251,18.251,0,0,1,6.515,1.066,6.49,6.49,0,0,1,1.742.779c-.176,1.177-.463,2.243-.711,3.35a44.81,44.81,0,0,0-5.077,2.673,7.328,7.328,0,0,0,4.687,2.251,7.224,7.224,0,0,0,4.061-1.117c.166-.1.345-.19.542-.321.148-.1.456-.262.491-.372a5.908,5.908,0,0,0-.017-1.235c-.282-5.951-.895-11.568-1.455-17.175-.453-4.531-.975-8.71-1.464-13.21-.078-.713-.166-1.545-.254-2.233a4.275,4.275,0,0,0-.355-1.506c-.055-.1-.221-.313-.221-.389a2.48,2.48,0,0,1,.17-.44c.362-1,.8-2.069,1.184-3A.087.087,0,0,1,157.955.8M145.713,35.326a3.388,3.388,0,0,0,.676.575c.237.178.452.4.677.593.452.392.869.824,1.337,1.2,1-.6,2.03-1.254,3.012-1.844.133-.08.313-.128.389-.271a18.182,18.182,0,0,0-6.091-.254M50.792,1.686c-.239.577-.482,1.168-.711,1.726a4.12,4.12,0,0,0-.372.9,5.53,5.53,0,0,0,.1.964c.109.97.21,1.979.3,2.894.394,3.852.8,7.8,1.168,11.642.247,2.561.483,5.208.619,7.8.072,1.373.173,2.747.152,4.112a22.766,22.766,0,0,1-.44,3.841,13.744,13.744,0,0,1-1.032,3.232,16.132,16.132,0,0,1-1.625,2.639A20.787,20.787,0,0,1,44.677,45.7a64.994,64.994,0,0,1-7.92,4.89c-.8.446-1.66.864-2.4,1.337-.1.066-.287.116-.254.287a5.321,5.321,0,0,0,1.793-.338c4.036-1.081,8.18-2.132,10.965-4.45,3.239-2.7,5.014-6.679,5.923-11.71.142,1.123.175,2.206.372,3.215.595,3.055,1.688,5.417,4.2,6.565A5.675,5.675,0,0,0,60.4,45.9a7.23,7.23,0,0,0,2.64-.947,10.818,10.818,0,0,0,3.553-3.6A3.623,3.623,0,0,0,67.876,44.4a4.035,4.035,0,0,0,3.451.559c2.192-.679,3.063-2.81,4.129-4.518A3.1,3.1,0,0,0,77.4,43.651a3.828,3.828,0,0,0,3.993-.558,4.967,4.967,0,0,0,.846-1.726,8.305,8.305,0,0,0,.355-4.451,6.781,6.781,0,0,0-.338-.947,2.132,2.132,0,0,0-.508-.8c-.3,1.09-.547,2.239-.829,3.351a4.438,4.438,0,0,1,.8,1.32c0,.017.014.02.017.034a3.058,3.058,0,0,1-2.014.575,3.752,3.752,0,0,1-1.963-.642,2.168,2.168,0,0,1-1.033-1.557,5.1,5.1,0,0,1,.355-1.591.684.684,0,0,0,.034-.524c-.317.016-.505.285-.676.491a20.867,20.867,0,0,0-1.388,2.233,5.46,5.46,0,0,1-2.5,2.335c-1.9.79-4.61.1-4.585-2.013a2.919,2.919,0,0,1,.22-.981c.1-.268.325-.556.187-.9a.928.928,0,0,0-.643.321,13.563,13.563,0,0,0-1.4,1.591,9.366,9.366,0,0,1-2.047,1.963,7.378,7.378,0,0,1-2.86,1.151,5.763,5.763,0,0,1-3.367-.406,5.95,5.95,0,0,1-3.249-4.755,60.481,60.481,0,0,1-.575-7.445c-.031-.649-.017-1.3-.017-1.946,0-1.959-.176-3.842-.288-5.72A168.294,168.294,0,0,0,51.959,4.072a19.1,19.1,0,0,0-.711-3.3h-.034a3.67,3.67,0,0,0-.423.913m172.2-.44c-.357.86-.684,1.719-1.016,2.606a1.913,1.913,0,0,0-.17.44c.005.068.115.183.17.271a3.636,3.636,0,0,1,.406,1.489c.342,2.819.689,5.745,1,8.528.731,6.6,1.562,12.912,2.047,19.714.116,1.623.213,3.472.287,5.161.056,1.269.034,2.664.034,4.01a5.361,5.361,0,0,0,.034.981c.162.642.547-.252.66-.525a9.9,9.9,0,0,0,.321-.964,30.026,30.026,0,0,0,.745-9.391c-.272-5.676-.99-10.958-1.625-16.3-.34-2.857-.687-5.727-1.066-8.528-.024-.175-.108-.372,0-.542.22-.007.34.231.457.372.266.324.518.634.779.948.119.144.26.378.491.355a.935.935,0,0,0,.05-.66,7.253,7.253,0,0,0-.558-1.81c-.816-2.074-1.647-4.073-2.538-6.108-.078-.178-.176-.507-.288-.525-.129.112-.153.314-.22.474m-114.235.745c-.469,1.113-.984,2.2-1.388,3.317a8.9,8.9,0,0,0-.659,2.471,2.353,2.353,0,0,0,.913,2.234,1.127,1.127,0,0,0,1-.051,3.932,3.932,0,0,0,1.337-2.268,1.7,1.7,0,0,0,.118-1c-.177-.007-.227.168-.287.27a3.3,3.3,0,0,0-.187.372,2.41,2.41,0,0,1-.338.779c-.208.2-.608.1-.829-.017a1.714,1.714,0,0,1-.677-1.709,10.117,10.117,0,0,1,.914-2.707,11.065,11.065,0,0,0,.693-2.03c.023-.127.141-.79-.05-.779a5.562,5.562,0,0,0-.559,1.117M96.55,1.212c-.365.9-.669,1.713-1.016,2.64a1.9,1.9,0,0,0-.169.44c.005.074.146.222.2.322a3.258,3.258,0,0,1,.338,1.269c.579,4.42,1.029,8.955,1.556,13.385.578,4.846,1.18,10.131,1.547,15.246a2.732,2.732,0,0,1,.033.508c-.034.163-.359.456-.491.609A27.6,27.6,0,0,0,95.3,40.2a13.246,13.246,0,0,0-1.269,3.2,13.088,13.088,0,0,0-.423,4.011,7.4,7.4,0,0,0,1.032,3.435,5.267,5.267,0,0,0,2.3,2.166,4.522,4.522,0,0,0,1.861.372,6.4,6.4,0,0,0,1.861-.372,8.3,8.3,0,0,0,1.523-.711,59.127,59.127,0,0,0,6.548-4.6,44.124,44.124,0,0,1,5.348-3.587,21.149,21.149,0,0,1,3.029-1.439,10.6,10.6,0,0,1,3.74-.728,9.728,9.728,0,0,1,3.638.829A16.151,16.151,0,0,1,126.71,43.9c.163.1.526.383.728.355.256-.035.294-.9.321-1.15a4.532,4.532,0,0,0-.1-2.539,2.192,2.192,0,0,0-.812-.642,18.471,18.471,0,0,0-2.048-.83,4.413,4.413,0,0,1-1.844-1.049,10.149,10.149,0,0,1-1.776-3.993c-.406-1.581-.712-3.2-.964-4.806-.265-1.684-.44-3.4-.66-5.111-.439-3.428-.981-7.455-1.4-10.863-.185-1.5-.365-3.023-.575-4.484-.027-.187-.115-.43.017-.609.222.032.313.256.44.406.268.317.537.616.795.931.119.144.232.385.475.355a.946.946,0,0,0,.05-.66,7.45,7.45,0,0,0-.558-1.81c-.8-2.095-1.663-4.105-2.539-6.108a1.56,1.56,0,0,0-.27-.525,2.658,2.658,0,0,0-.389.846c-.291.728-.579,1.451-.863,2.217a1.922,1.922,0,0,0-.17.457c.008.089.183.256.237.355a4.334,4.334,0,0,1,.339,1.489c.09.708.19,1.46.27,2.149.508,4.34,1.182,9.27,1.654,13.6.475,4.352,1.017,8.749,1.726,12.809a22.46,22.46,0,0,0,.964,3.858c-3.757.707-6.52,2.609-9.272,4.4-1.379.9-2.657,1.9-3.976,2.86s-2.691,1.869-4.112,2.741a10.384,10.384,0,0,1-2.3,1.117,6.1,6.1,0,0,1-3,.152c-1.854-.406-2.546-2.055-2.454-4.349a9.724,9.724,0,0,1,.592-2.826,20.576,20.576,0,0,1,3.706-6.125c.061-.077.118-.2.187-.186.218,2.437.2,4.96.2,7.581,0,.369-.042.9.186.947.2.04.4-.472.508-.728a13.464,13.464,0,0,0,.779-3.063,45.34,45.34,0,0,0,.135-9.713c-.129-1.6-.264-3.162-.423-4.7-.618-5.978-1.384-12.109-2.138-17.954-.021-.167-.123-.375.017-.525.221.035.314.256.44.406.265.319.538.616.8.931.118.144.232.383.474.355a.918.918,0,0,0,.051-.66,7.839,7.839,0,0,0-.542-1.81c-.86-2.289-1.879-4.414-2.792-6.633h-.034c-.11.043-.172.279-.237.44m-37.412.805c-.471,1.1-.918,2.061-1.354,3.215A9.5,9.5,0,0,0,57.108,7.6a2.651,2.651,0,0,0,.659,2.318,1.1,1.1,0,0,0,1.218.1,3.891,3.891,0,0,0,1.337-2.268,1.716,1.716,0,0,0,.118-1c-.193-.005-.226.181-.287.288a3.017,3.017,0,0,0-.187.406c-.1.254-.21.659-.406.778a.934.934,0,0,1-.846-.118,1.822,1.822,0,0,1-.593-1.658,9.964,9.964,0,0,1,.914-2.707,10.967,10.967,0,0,0,.693-2.031c.023-.129.137-.793-.05-.778a5.116,5.116,0,0,0-.542,1.083m20.159-.2c.065-.229.2-.721.017-.914-.156-.17-.541-.092-.762,0a3.619,3.619,0,0,0-2.115,2.522c-.056.743.495.83.863,1.2-.326.237-.762.307-1,.626a3.047,3.047,0,0,0-.322,1.167,2.674,2.674,0,0,0,.508-.338c1.261-.818,2.716-1.43,4.061-2.132a7.461,7.461,0,0,0,.44-1.2c-.676.129-1.281.675-2.014.863a1.385,1.385,0,0,1-1.2-.423c-.181-.166-.492-.471-.423-.745.047-.187.644-.439.829-.491.566-.16.548.268.728.575.236-.126.3-.39.388-.711m67.6-.8a5.51,5.51,0,0,0-.406.846c-.377.895-.753,1.763-1.1,2.674a4.306,4.306,0,0,0-.355,3.029c.187.446.6,1,1.252.711.693-.3,1.11-1.414,1.269-2.251.023-.122.09-.307-.034-.406-.4.171-.337.947-.677,1.167s-.783-.114-.947-.389a2.618,2.618,0,0,1,.1-2.149c.276-.711.587-1.359.829-2.081a2.129,2.129,0,0,0,.152-1.2h-.033c-.042,0-.044.039-.051.05m58.278,2.048a2.222,2.222,0,0,0,.135-.728,1.608,1.608,0,0,0-.44-.693c-.281-.342-.57-.7-1.083-.676-.531.021-1.051.837-1.252,1.286-.639,1.433-.624,3.842-1,5.432a18.177,18.177,0,0,0-1.2-3.519,4.048,4.048,0,0,0-1.675-1.861,1.716,1.716,0,0,0-.93-.254c-.431.073-.583.859-.643,1.371a1.564,1.564,0,0,0-.017.524c.042.1.332.23.457.3.354.212.632.377.948.592.1.07.342.329.474.3.156-.029.16-.324.321-.389,1.011,1.313,1.436,3.211,1.98,4.991.226-.084.318-.351.406-.575a20.436,20.436,0,0,0,.761-4.214,7.366,7.366,0,0,1,.356-1.642c.17-.415.586-.936,1.15-.659.442.217.679.761,1.05,1.049a2.822,2.822,0,0,0,.2-.642M27.743.807c-.106.114-.078.554-.084.795-.024.843-.065,1.756-.067,2.538.169.131.341.2.491.339a7.269,7.269,0,0,1,1.083,1.455c.444.68.887,1.376,1.337,2.047.9,1.346,1.865,2.659,2.809,3.96,2.848,3.926,7.406,9.228,10.25,13.131,2.387,3.277,4.946,6.305,5.889,11.033a17.971,17.971,0,0,1,.271,2.267c.012.182.026.661.169.677s.237-.291.288-.474a13.414,13.414,0,0,0,.287-4.806A15.963,15.963,0,0,0,49.143,29a16.784,16.784,0,0,0-1.049-2c-.387-.642-.734-1.306-1.134-1.912-.82-1.243-1.642-2.409-2.521-3.57-2.634-3.48-6.922-8.358-9.623-11.743-.787-.986-1.576-2.016-2.3-3.029a.9.9,0,0,1-.254-.474,4.194,4.194,0,0,1,1.151.372,2.976,2.976,0,0,0,1.184.3,1.461,1.461,0,0,0-.524-1.05,7.109,7.109,0,0,0-.83-.795c-1.763-1.5-3.616-2.919-5.414-4.332h-.034a.12.12,0,0,0-.051.034m147.02,1c-.485,1.12-.9,2-1.353,3.215a9.564,9.564,0,0,0-.677,2.368,2.629,2.629,0,0,0,.677,2.318,1.114,1.114,0,0,0,1.167.1,3.753,3.753,0,0,0,1.371-2.284,1.726,1.726,0,0,0,.118-1c-.181-.014-.224.177-.288.288a3.1,3.1,0,0,0-.186.389c-.112.276-.2.645-.389.778-.4.276-.944-.134-1.117-.355a2.069,2.069,0,0,1-.338-1.4,10.092,10.092,0,0,1,.913-2.707,10.361,10.361,0,0,0,.694-2.031c.02-.118.139-.794-.051-.778a4.892,4.892,0,0,0-.542,1.1m9.023,3.1c.406.326.958.561,1.067,1.168a3.2,3.2,0,0,1-.3,1.421c-.148-.089-.2-.25-.3-.372a5.94,5.94,0,0,0-1.033-.745,23.018,23.018,0,0,1-6.87,7.717c-.816.595-1.632,1.2-2.5,1.759-.113.072-.255.187-.406.152.068-.3.349-.467.558-.643,1.5-1.264,3.037-2.563,4.433-3.96.794-.793,1.562-1.637,2.284-2.5a18.478,18.478,0,0,0,2.031-2.759c-.31-.236-.628-.406-.931-.609a2.64,2.64,0,0,1-.862-.728A2.817,2.817,0,0,1,181.3,1.84,2.192,2.192,0,0,1,182.787.724a1,1,0,0,1,.542.135c.952.6.8,2.9.457,4.044m-1.591-2.622a1.091,1.091,0,0,0-.676.355.746.746,0,0,0-.187.389.744.744,0,0,0,.221.423,7.623,7.623,0,0,0,1.742,1.185c.125-1.056-.055-2.431-1.1-2.352M37.419,7.662c.1-.071.216-.124.321-.187,2.926-1.742,5.974-3.409,9-5.093a2.85,2.85,0,0,0,.643-.372c.129-.164.1-.292.186-.558.044-.137.3-.641-.017-.525a11.149,11.149,0,0,0-1.234.643C43.88,2.86,41.469,4.256,39.061,5.6a8.369,8.369,0,0,0-1.185.711,2.144,2.144,0,0,0-.524.846,2.384,2.384,0,0,0-.237.66c.13.038.219-.093.3-.152M63.909.79a7.613,7.613,0,0,0-.067,1.675c0,.261-.018.538-.017.846a3.171,3.171,0,0,0,.017.829c.04.087.4.243.524.356a7.782,7.782,0,0,1,1.151,1.488c.478.729.951,1.459,1.421,2.115,2.971,4.139,8.156,10.468,11.412,14.282q3.248,3.8,6.21,7.936a20.778,20.778,0,0,1,2.572,4.5,15.459,15.459,0,0,1,1.1,4.2c.035.355.061.808.118,1.2.09.63.333.166.423-.186a13,13,0,0,0,.288-2.1,14.594,14.594,0,0,0-.152-2.944,14.742,14.742,0,0,0-1.556-4.84c-.348-.69-.771-1.344-1.168-2.013a50.95,50.95,0,0,0-4.01-5.584c-1.88-2.381-3.965-4.564-5.94-6.836-1.859-2.139-5.679-6.805-7.4-9.053a1,1,0,0,1-.288-.491,4.589,4.589,0,0,1,1.168.338c.185.065.379.145.575.2a.874.874,0,0,0,.609.068,1.481,1.481,0,0,0-.541-1.033,8.747,8.747,0,0,0-.847-.778C67.726,3.5,65.8,2.149,63.977.773c-.023.005-.032.024-.068.017m76.507,2.025a2.267,2.267,0,0,0,.135-.728c-.031-.291-.314-.538-.491-.745a1.886,1.886,0,0,0-.677-.576c-.731-.275-1.3.614-1.539,1.083-.748,1.463-.649,3.912-1.066,5.584-.62-2.034-1.066-4.456-2.877-5.364a1.758,1.758,0,0,0-.913-.271c-.361.054-.488.485-.576.9a2.6,2.6,0,0,0-.1,1c.043.1.332.231.457.3.187.111.353.2.491.288a7.988,7.988,0,0,0,.931.609c.137-.1.186-.288.321-.389a8,8,0,0,1,1.168,2.318c.311.863.524,1.8.829,2.673a1.144,1.144,0,0,0,.423-.659,33.328,33.328,0,0,0,.813-4.654,3.425,3.425,0,0,1,.575-1.607.7.7,0,0,1,.846-.17c.44.222.682.757,1.05,1.049a2.781,2.781,0,0,0,.2-.642M22.179,1.921c-.46,1.1-.925,2.091-1.354,3.215a9.588,9.588,0,0,0-.676,2.369,2.647,2.647,0,0,0,.659,2.318,1.1,1.1,0,0,0,1.185.118,3.817,3.817,0,0,0,1.37-2.284,1.709,1.709,0,0,0,.118-1c-.181-.015-.224.177-.287.287a2.927,2.927,0,0,0-.187.389c-.111.279-.2.648-.389.779-.421.292-1-.165-1.167-.423a2.18,2.18,0,0,1-.288-1.337,9.948,9.948,0,0,1,.914-2.707,10.966,10.966,0,0,0,.693-2.03c.02-.109.141-.786-.05-.779a5.1,5.1,0,0,0-.542,1.083M83.1,4.49c-.384.2-.76.411-1.117.609-2.241,1.245-4.465,2.453-6.582,3.756a2.644,2.644,0,0,0-.457.863,1.532,1.532,0,0,0-.2.643,2.133,2.133,0,0,0,.542-.338c1.327-.828,2.695-1.566,4.044-2.352,1.547-.9,3.149-1.729,4.687-2.623a9.169,9.169,0,0,0,.288-.879c.022-.078.11-.235-.017-.271,0-.01,0-.02-.017-.017A12.5,12.5,0,0,0,83.1,4.49M219.811,6.157c.049-.109.157-.287,0-.3a3.662,3.662,0,0,0-.83.355c-1.791.817-3.528,1.709-5.211,2.555-3.954,1.988-7.725,4.048-11.523,6.211-1.395.793-2.849,1.569-4.231,2.42a4.492,4.492,0,0,0-1.252.964,4.525,4.525,0,0,0-.356.676,1.448,1.448,0,0,0-.237.779c.15.049.264-.1.355-.169a18.993,18.993,0,0,1,2.386-1.54c6.6-3.876,13.455-7.535,20.458-10.981.087-.233.3-.666.44-.965M231.23,8.3c-.556,1.306-1.14,2.6-1.608,3.959a4.934,4.934,0,0,0-.355,1.879,2.018,2.018,0,0,0,.846,1.692,1.036,1.036,0,0,0,.914-.067,3.615,3.615,0,0,0,1.2-2.064,1.5,1.5,0,0,0,.1-.9c-.508.148-.415,1.2-.863,1.371a.957.957,0,0,1-.9-.3c-.595-.657-.291-1.777-.017-2.538.147-.407.312-.826.474-1.218a9.891,9.891,0,0,0,.66-1.879c.036-.2.122-.714-.051-.728a3.574,3.574,0,0,0-.406.8M44.462,6.769c-.423,1-.854,1.967-1.235,2.978-.338.9-.868,2.3-.389,3.419.226.527.772,1.15,1.489.744a3.452,3.452,0,0,0,1.218-2.047,1.452,1.452,0,0,0,.1-.9c-.256.1-.33.39-.44.66-.1.25-.178.6-.406.693a.82.82,0,0,1-.642-.1,1.533,1.533,0,0,1-.593-1.371,4.038,4.038,0,0,1,.339-1.32c.15-.4.308-.8.474-1.2a9.345,9.345,0,0,0,.643-1.844A1.188,1.188,0,0,0,45,5.753H44.97a4.917,4.917,0,0,0-.508,1.016M154.714,8.9c.044-.1.185-.287.034-.322-.064-.014-.08.029-.1.034a4.861,4.861,0,0,0-.711.288c-.227.1-.458.222-.677.321-3.24,1.48-6.3,3.041-9.341,4.687-3.011,1.633-6.067,3.276-9,5.009a7.173,7.173,0,0,0-1.2.812,2.694,2.694,0,0,0-.559.83,1.89,1.89,0,0,0-.3,1.015,2,2,0,0,0,.626-.406c.614-.431,1.241-.819,1.895-1.2,2.611-1.528,5.255-3.031,7.953-4.467,3.6-1.913,7.215-3.865,10.965-5.6.11-.224.287-.682.423-1M14.8,8.54a1.449,1.449,0,0,0-.321-.508c-.244-.3-.571-.764-1.083-.711-.474.049-.9.7-1.1,1.116-.645,1.336-.562,3.552-.948,5.026-.393-1.53-.891-3.362-1.912-4.382a2.52,2.52,0,0,0-1.354-.762c-.762-.094-.762,1.114-.812,1.726q.852.551,1.709,1.1c.141-.079.173-.267.3-.355a11.261,11.261,0,0,1,1.556,3.672,2.529,2.529,0,0,1,.152.609c-.014.062-.157.143-.237.221a2.933,2.933,0,0,0-.558.812,2.487,2.487,0,0,0-.372,1.4c.231-.08.3-.325.423-.507s.228-.394.457-.475c.642-.225,1.184.386,1.472.677-1.444.288-2.653.931-2.961,2.335a3.365,3.365,0,0,0,.389,2.081c.191.47.394.927.575,1.354a26.743,26.743,0,0,1,2.03,9.543,1.288,1.288,0,0,0,.254-.745,13.433,13.433,0,0,0,.017-2.86,28.347,28.347,0,0,0-2.775-9.255A6.422,6.422,0,0,1,13.346,18.4a4.565,4.565,0,0,0,.2-.711,2.106,2.106,0,0,0,.152-.762,2.092,2.092,0,0,0-.423-.643,3.72,3.72,0,0,0-1.861-1.337,10.621,10.621,0,0,0,.592-2.876,8.2,8.2,0,0,1,.609-2.86.848.848,0,0,1,.558-.423c.435-.036.739.363.931.592.13.155.227.356.406.44.062-.37.358-.894.287-1.286m67.571-.813a5.267,5.267,0,0,0-.389.829,35.82,35.82,0,0,0-1.726,4.332A3.738,3.738,0,0,0,80.273,15c.2.494.731,1.121,1.438.795a3.224,3.224,0,0,0,1.269-2.03,1.546,1.546,0,0,0,.1-.914c-.242.065-.308.349-.406.593a2.041,2.041,0,0,1-.321.676c-.35.3-.935-.116-1.1-.389a2.818,2.818,0,0,1,.084-2.318c.306-.808.649-1.533.93-2.352a2.392,2.392,0,0,0,.187-1.371h-.034a.125.125,0,0,0-.05.034m137.05,4.326c-.474,1.122-.963,2.171-1.388,3.317-.376,1.015-.961,2.558-.44,3.824.229.557.766,1.234,1.557.9a2.575,2.575,0,0,0,1.134-1.371,7.879,7.879,0,0,0,.338-.914,1.972,1.972,0,0,0,.118-1.049c-.17-.007-.239.17-.305.288-.183.325-.3,1.016-.592,1.184a.91.91,0,0,1-.829-.118,1.783,1.783,0,0,1-.592-1.659,9.823,9.823,0,0,1,.913-2.707,10.389,10.389,0,0,0,.694-2.03c.028-.156.135-.794-.051-.779a5.649,5.649,0,0,0-.558,1.117m-108,1.553a1.133,1.133,0,0,0-.338-.592c-.245-.3-.573-.764-1.084-.711-.472.049-.9.705-1.1,1.117-.644,1.336-.561,3.55-.947,5.026-.48-1.741-1.018-4.06-2.572-4.89a1.843,1.843,0,0,0-.795-.271c-.638.012-.673,1.164-.711,1.743.35.231.867.555,1.269.829.1.072.347.283.44.271.165-.021.159-.31.3-.355a11.238,11.238,0,0,1,1.556,3.672,2.549,2.549,0,0,1,.152.609c-.012.051-.126.129-.186.186a3.116,3.116,0,0,0-.745,1.1,2.293,2.293,0,0,0-.237,1.151c.231-.082.309-.331.423-.508.126-.2.227-.394.474-.474.639-.208,1.165.378,1.455.676a4.521,4.521,0,0,0-2.3,1.067,2.624,2.624,0,0,0-.711,1.895,4.769,4.769,0,0,0,.44,1.472c.193.469.394.918.576,1.354a26.671,26.671,0,0,1,2.03,9.526,1.288,1.288,0,0,0,.254-.745,13.783,13.783,0,0,0,.017-2.842,27.9,27.9,0,0,0-2.775-9.256,3.652,3.652,0,0,1,1.591-.863,8,8,0,0,1,2.047-.406,4.337,4.337,0,0,0,.2-.711,2.128,2.128,0,0,0,.153-.762,2.062,2.062,0,0,0-.423-.642,3.718,3.718,0,0,0-1.861-1.337c.578-1.288.54-3.42.93-4.992.121-.485.343-1.115.812-1.167.445-.049.756.366.948.592.133.157.226.359.406.44a6.781,6.781,0,0,0,.3-1.2m12.095,1.8c-.457,1.092-.929,2.084-1.354,3.2a9.69,9.69,0,0,0-.677,2.351,2.694,2.694,0,0,0,.643,2.335,1.1,1.1,0,0,0,1.235.118,3.925,3.925,0,0,0,1.337-2.267,1.7,1.7,0,0,0,.118-1c-.168-.006-.239.173-.3.288-.187.331-.312,1.048-.609,1.2a.885.885,0,0,1-.8-.135,1.767,1.767,0,0,1-.609-1.642,5.858,5.858,0,0,1,.389-1.421c.164-.446.348-.877.525-1.3a10.478,10.478,0,0,0,.693-2.031c.017-.1.144-.8-.051-.779a5.111,5.111,0,0,0-.541,1.084M64.948,17.674a2.2,2.2,0,0,0,.135-.728c-.032-.293-.313-.537-.491-.745a1.847,1.847,0,0,0-.676-.576c-.746-.275-1.3.619-1.54,1.1-.741,1.465-.65,3.929-1.083,5.584a15.967,15.967,0,0,0-1.184-3.536,4.074,4.074,0,0,0-1.675-1.861,1.794,1.794,0,0,0-.931-.254c-.343.06-.472.492-.558.9a2.627,2.627,0,0,0-.1,1c.043.1.335.229.457.3.187.114.35.2.491.288a8.165,8.165,0,0,0,.93.609c.138-.1.187-.288.322-.389a8.089,8.089,0,0,1,1.167,2.318c.319.86.519,1.8.829,2.673A2.367,2.367,0,0,0,61.665,23c.258-1.051.358-2.293.525-3.435a7.376,7.376,0,0,1,.355-1.641c.17-.417.584-.939,1.151-.66.441.217.681.76,1.049,1.049a2.767,2.767,0,0,0,.2-.642m122.933.265a2.237,2.237,0,0,0,.135-.728,1.787,1.787,0,0,0-.508-.779,1.257,1.257,0,0,0-1.033-.592c-.558.057-1.017.816-1.235,1.3-.651,1.455-.609,3.835-1.015,5.432a15.92,15.92,0,0,0-1.185-3.536,4.057,4.057,0,0,0-1.675-1.861,1.725,1.725,0,0,0-.93-.254c-.429.073-.583.86-.643,1.371a1.547,1.547,0,0,0-.017.525c.042.095.332.229.457.3.356.214.63.375.948.592.1.07.345.327.474.3.157-.027.16-.323.321-.389a8.047,8.047,0,0,1,1.168,2.318c.313.863.523,1.8.829,2.673.248-.132.342-.446.44-.728.519-1.477.475-3.384.88-5.009.154-.619.483-1.784,1.337-1.354.44.222.682.757,1.05,1.05a2.8,2.8,0,0,0,.2-.643m41.27,3.851a2.681,2.681,0,0,0-.423.795,1.358,1.358,0,0,0-.2.626,5.165,5.165,0,0,0,.524-.321c2.632-1.625,5.456-3.046,8.156-4.586.062-.16.115-.357.169-.542s.193-.364.085-.524c-2.868,1.418-5.588,2.986-8.309,4.552m-73.675-4.214a2.237,2.237,0,0,0,.135-.728,1.749,1.749,0,0,0-.508-.779,1.876,1.876,0,0,0-.659-.541.866.866,0,0,0-.9.22c-1.424,1.226-1.206,4.353-1.726,6.464a15.968,15.968,0,0,0-1.184-3.536,4.08,4.08,0,0,0-1.676-1.861,1.791,1.791,0,0,0-.93-.254c-.43.073-.583.864-.643,1.371a1.594,1.594,0,0,0-.017.525c.043.1.333.23.457.3.187.112.351.2.491.288a7.908,7.908,0,0,0,.93.609c.139-.1.188-.285.321-.389a8,8,0,0,1,1.168,2.318c.311.863.525,1.8.829,2.673.248-.132.341-.448.44-.728a13.438,13.438,0,0,0,.559-2.978,15.1,15.1,0,0,1,.321-2.031c.14-.544.341-1.382.931-1.438a1.1,1.1,0,0,1,.846.44,5.013,5.013,0,0,0,.609.694,2.773,2.773,0,0,0,.2-.643m57.972,1.449a2.21,2.21,0,0,0,.135-.728c-.03-.29-.314-.539-.491-.745a1.859,1.859,0,0,0-.676-.575.888.888,0,0,0-.914.237c-1.384,1.214-1.22,4.383-1.692,6.43-.595-2-1.09-4.467-2.876-5.381A1.79,1.79,0,0,0,206,18.01c-.435.074-.581.864-.643,1.371a1.471,1.471,0,0,0-.016.524c.042.1.332.23.457.3.187.112.351.2.491.287a7.908,7.908,0,0,0,.93.609c.138-.1.187-.287.322-.388a8.078,8.078,0,0,1,1.167,2.318c.322.859.515,1.8.829,2.673a2.36,2.36,0,0,0,.626-1.354c.259-1.039.359-2.3.525-3.435a7.363,7.363,0,0,1,.355-1.642c.174-.423.578-.941,1.151-.659.442.217.68.761,1.049,1.049a2.774,2.774,0,0,0,.2-.643m-187.317-1.1a2.236,2.236,0,0,0,.135-.728c-.032-.292-.313-.538-.491-.745a1.876,1.876,0,0,0-.677-.575.88.88,0,0,0-.913.237c-1.382,1.211-1.22,4.443-1.709,6.447a15.748,15.748,0,0,0-1.185-3.536,4.088,4.088,0,0,0-1.675-1.861,1.723,1.723,0,0,0-.93-.254c-.429.074-.583.858-.643,1.371a1.569,1.569,0,0,0-.017.525c.042.1.331.229.457.3.355.211.632.376.948.592.1.071.343.329.474.3.156-.029.16-.323.321-.389,1.01,1.314,1.436,3.211,1.98,4.991.255-.112.359-.433.457-.711.521-1.476.478-3.386.88-5.009.169-.682.526-1.864,1.421-1.32.388.236.621.726.965,1a2.816,2.816,0,0,0,.2-.643M33.745,30.7a8.8,8.8,0,0,1,.135.9c.016.313.015.781-.22.813-.217.028-.455-.526-.542-.66a7.449,7.449,0,0,0-.474-.711c-1.965.661-3.817,1.489-5.669,2.3q-.7.3-1.371.626a.916.916,0,0,0-.406.254c.1.129.293.136.44.169,2.481.555,6.108,1.086,6.6,2.539a7.548,7.548,0,0,1-.051,4.247,5.155,5.155,0,0,1-.846,1.591A17.99,17.99,0,0,1,27.4,46.118a40.375,40.375,0,0,1-9.476,5.11A19.887,19.887,0,0,1,9.6,52.463a9.4,9.4,0,0,1-6.583-3.147A11.185,11.185,0,0,1,.461,42.141a16.275,16.275,0,0,1,.457-4.416,19.7,19.7,0,0,1,1.269-3.638,3.638,3.638,0,0,1-.745-3.029,13.541,13.541,0,0,1,.9-2.978c.607-1.6,1.344-3.146,2.03-4.738.061-.141.219-.619.355-.609.189.014.1.548.085.677a8.063,8.063,0,0,1-.542,1.946c-.32.834-.619,1.537-.947,2.352-.418,1.036-1.01,2.845-.135,3.892.233.28.974.741,1.421.389.2-.16.314-.643.457-1,.056-.141.368-.914.575-.846.156.051.084.458.051.643a7.71,7.71,0,0,1-.576,1.793,3.568,3.568,0,0,1-1.387,1.76,1.449,1.449,0,0,1-.559.152,14.333,14.333,0,0,0-1.15,5.482,10.7,10.7,0,0,0,.44,2.893,7.369,7.369,0,0,0,4.89,5.111,13.884,13.884,0,0,0,5.906.609,22.906,22.906,0,0,0,5.415-1.252,33.356,33.356,0,0,0,4.619-2.047,43.791,43.791,0,0,0,4.163-2.5,30.549,30.549,0,0,0,3.74-2.91c-1.135-1.812-10.6-3.013-10.9-3.063-.238-.04-.691-.072-.744-.187-.076-.164.143-.653.22-.88A12.453,12.453,0,0,1,20.8,33.427a3.671,3.671,0,0,1,1.117-.812c.4-.245.835-.463,1.2-.66.823-.442,1.645-.826,2.488-1.218,1.717-.8,3.41-1.564,5.178-2.234-.276-.6-.726-1.133-.964-1.742a3.953,3.953,0,0,1-.068-2.319,4.511,4.511,0,0,1,1.489-2.572,3.53,3.53,0,0,1,.813-.524,3.979,3.979,0,0,1,3.164.541,13.614,13.614,0,0,1,1.759,1.168,31.089,31.089,0,0,1,2.454,1.963c.228.207.624.5.694.762a2.019,2.019,0,0,1-.17.981c-.2.655-.348,1.073-.575,1.759-.089.268-.179.687-.355.813a2.247,2.247,0,0,1-.677.169c-1.608.345-3.148.737-4.6,1.2M35.285,27c.113-.035.865-.216.88-.322s-.25-.218-.372-.3c-.421-.3-.85-.577-1.252-.813a5.134,5.134,0,0,0-1.98-.778,1.638,1.638,0,0,0-1.574.693c.5.812,1.076,1.553,1.574,2.369.876-.3,1.8-.567,2.724-.846m104.353-4.9c-.467,1.108-.982,2.18-1.4,3.3-.381,1.01-.958,2.565-.44,3.824.243.59.821,1.271,1.625.863a3.711,3.711,0,0,0,1.4-2.284,1.782,1.782,0,0,0,.118-1.016c-.181-.014-.225.176-.288.288a3.337,3.337,0,0,0-.186.388c-.112.275-.2.646-.389.779a.89.89,0,0,1-.863-.1,1.871,1.871,0,0,1-.576-1.743,7.589,7.589,0,0,1,.576-1.81,19.882,19.882,0,0,0,.964-2.606c.031-.124.227-.954,0-1.016a4.5,4.5,0,0,0-.542,1.134m60.1-1.41c-.467,1.108-.982,2.18-1.4,3.3-.381,1.01-.958,2.565-.44,3.824.243.589.821,1.271,1.625.863a3.715,3.715,0,0,0,1.4-2.285,1.794,1.794,0,0,0,.118-1.015c-.181-.014-.225.176-.288.287a3.5,3.5,0,0,0-.187.389c-.112.275-.2.646-.388.779a.89.89,0,0,1-.863-.1,1.869,1.869,0,0,1-.576-1.743,7.615,7.615,0,0,1,.576-1.81,19.882,19.882,0,0,0,.964-2.606c.03-.124.227-.955,0-1.016a4.489,4.489,0,0,0-.542,1.134M69.872,30.453c-.129.068-.63.262-.524.491.062.136.383.075.609.034.668-.122,1.279-.245,1.878-.372a9.181,9.181,0,0,0,2.369-.643,3.425,3.425,0,0,0,1-1.05A21.16,21.16,0,0,0,77.03,25.58c.1-.231.245-.613.118-.813-.227-.359-1.846-.259-2.335-.237A13.7,13.7,0,0,0,70.989,25a5.4,5.4,0,0,0-1.049,1.557c-.148.272-.313.559-.457.846a1.7,1.7,0,0,0-.3.93c.4-.032.792-.15,1.2-.22a19.031,19.031,0,0,1,4.078-.3,36,36,0,0,1-4.586,2.64m161.835-2.69c-.2.787-.332,1.611-.525,2.369a2.053,2.053,0,0,1,.491.457,5.518,5.518,0,0,1,.508,1.252,27.841,27.841,0,0,0,1.556,3.773,48.738,48.738,0,0,1,2.471,4.619,9.543,9.543,0,0,1-1.168,1.286A30.793,30.793,0,0,1,231,44.87a73.6,73.6,0,0,1-12.673,7.023c-2,.887-4.111,1.653-6.177,2.454-.251.1-.705.112-.728.508.181.175.435.036.626,0,3.478-.643,7.13-1.254,10.626-1.844a5.624,5.624,0,0,0,1.321-.338c.38-.167.724-.368,1.1-.559a51.207,51.207,0,0,0,6.244-3.756,21.91,21.91,0,0,0,3.6-3.046,9.535,9.535,0,0,0,1.472-1.861,9.4,9.4,0,0,0,.8-2.538,13.323,13.323,0,0,0,.321-3,5.022,5.022,0,0,0-.779-2.555c-.782-1.3-1.614-2.585-2.368-3.875-.044-.075-.124-.176-.085-.271a2.476,2.476,0,0,1,.813.169c.262.072.531.225.795.118.1-.3-.106-.535-.27-.728-1-1.165-2.057-2.172-3.1-3.3a3.328,3.328,0,0,0-.575-.524,4.453,4.453,0,0,0-.254.812m-117.719.354c-.422,1-.888,1.953-1.252,2.961-.325.9-.874,2.293-.406,3.435.218.532.8,1.143,1.506.745a3.471,3.471,0,0,0,1.218-2.048,1.441,1.441,0,0,0,.1-.9c-.5.16-.394,1.175-.846,1.354-.411.162-.878-.235-1.032-.525a2.924,2.924,0,0,1,.118-2.284c.147-.4.327-.785.491-1.185a9.582,9.582,0,0,0,.642-1.844,1.17,1.17,0,0,0-.017-.728h-.033a4.116,4.116,0,0,0-.491,1.016m69.375.321c-.277-.193-.583-.418-.863-.609a4.392,4.392,0,0,0-.9-.575c-.023-.008-.088.038-.084.034-.619.751-1.157,1.774-1.76,2.521-.978-.676-1.987-1.322-2.978-2.013-.119-.083-.326-.3-.457-.271-.079.015-.2.242-.254.321-.419.59-.779,1.126-1.184,1.709-.093.134-.463.544-.44.728.013.1.233.255.371.355.91.657,1.685,1.2,2.573,1.844.1.074.354.3.457.288.162-.018.4-.469.508-.626.488-.716.918-1.35,1.4-2.013.941.688,1.932,1.4,2.894,2.081.128.09.316.3.44.287.076-.009.208-.187.288-.3.424-.63.827-1.218,1.235-1.811a3.16,3.16,0,0,0,.474-.744c-.514-.433-1.119-.778-1.726-1.2m-121.816.135c-.473,1.122-.963,2.171-1.388,3.317-.375,1.014-.961,2.558-.44,3.824.241.586.828,1.268,1.625.863a3.711,3.711,0,0,0,1.4-2.284,1.775,1.775,0,0,0,.118-1.016c-.179,0-.243.178-.3.288a3.647,3.647,0,0,0-.187.423c-.107.268-.193.665-.423.779a.975.975,0,0,1-.813-.135,1.816,1.816,0,0,1-.592-1.659,10.113,10.113,0,0,1,.914-2.707,11.109,11.109,0,0,0,.693-2.03c.024-.132.138-.792-.05-.779a5.6,5.6,0,0,0-.559,1.117M39.854,32.137c-.4.925-.752,1.7-1.134,2.657a13.569,13.569,0,0,0-.643,1.878,3.4,3.4,0,0,0,.17,2.149,1.041,1.041,0,0,0,1.422.558,3.011,3.011,0,0,0,1.116-1.692,2.365,2.365,0,0,0,.2-1.252c-.509.155-.392,1.228-.88,1.371a.83.83,0,0,1-.609-.118,1.544,1.544,0,0,1-.592-1.388,4.217,4.217,0,0,1,.338-1.32c.145-.4.315-.8.474-1.184a9.293,9.293,0,0,0,.643-1.844,1.185,1.185,0,0,0-.017-.728H40.31a3.83,3.83,0,0,0-.457.913m-25.2,4.983a3.026,3.026,0,0,0-.406,1.37,4.579,4.579,0,0,0,.423,1.422A7,7,0,0,1,15.1,41.35a1.239,1.239,0,0,1-1.608-.2A4.043,4.043,0,0,1,13,39.133a5.143,5.143,0,0,0-.525-1.98,1.555,1.555,0,0,0-.271.542,1.939,1.939,0,0,0-.237.575,3.352,3.352,0,0,0,.187.745c.271,1.129.21,2.626-.779,2.944a.936.936,0,0,1-1.167-.542,3.5,3.5,0,0,1,.118-1.591,3.492,3.492,0,0,0-.271-2.149c-.205.382-.406.768-.609,1.151.53.866-.045,2.079.034,3.164a1.3,1.3,0,0,0,1.759,1.2,2.929,2.929,0,0,0,1.354-2.132,2.466,2.466,0,0,0,.559,1.371,1.556,1.556,0,0,0,1.505.406c.742-.268,1.079-1.3,1.016-2.318a6.115,6.115,0,0,0-.491-1.676,12.14,12.14,0,0,1-.457-1.725c0-.011,0-.02-.017-.017s0-.02-.017-.017c0,.022-.03.015-.034.034m18.918,9.865c.112-.084.227-.163.338-.237,3.237-2.159,6.631-4.148,10-6.193a3.525,3.525,0,0,0,.711-.457,2.119,2.119,0,0,0,.22-.642c.043-.158.26-.741-.033-.626a5.476,5.476,0,0,0-.694.388c-3.01,1.765-5.935,3.575-8.866,5.415a7.34,7.34,0,0,0-1.32.88,2.9,2.9,0,0,0-.491.964,1.532,1.532,0,0,0-.2.711c.145.008.241-.129.338-.2m182.174-.947c-.276-.192-.56-.407-.863-.609a4.54,4.54,0,0,0-.9-.576c-.037-.011-.049.03-.084.034-.505.69-.9,1.321-1.388,2.014-.093.131-.465.509-.44.711.013.1.254.27.372.355.91.657,1.7,1.2,2.572,1.844.1.07.356.3.457.288.083-.009.216-.2.288-.3.417-.619.826-1.228,1.235-1.81a3.221,3.221,0,0,0,.474-.745c-.495-.418-1.108-.773-1.726-1.2m-34.97.7c-.474,1.122-.964,2.171-1.388,3.317-.376,1.014-.962,2.558-.44,3.824.242.586.828,1.268,1.625.863a3.709,3.709,0,0,0,1.4-2.284,1.781,1.781,0,0,0,.118-1.016c-.18,0-.244.178-.305.288a3.8,3.8,0,0,0-.186.423c-.108.268-.193.666-.423.779a.97.97,0,0,1-.812-.135,1.81,1.81,0,0,1-.592-1.658,10.061,10.061,0,0,1,.913-2.707,11.143,11.143,0,0,0,.694-2.031c.023-.132.138-.792-.051-.778a5.6,5.6,0,0,0-.558,1.116m17.249,0c-.473,1.122-.963,2.171-1.387,3.317-.376,1.014-.962,2.558-.44,3.824.242.586.828,1.268,1.625.863a3.713,3.713,0,0,0,1.4-2.284,1.781,1.781,0,0,0,.118-1.016c-.18,0-.244.178-.3.288a3.5,3.5,0,0,0-.186.423c-.108.268-.193.666-.423.779a.97.97,0,0,1-.812-.135,1.81,1.81,0,0,1-.592-1.658,10.062,10.062,0,0,1,.913-2.707,11.077,11.077,0,0,0,.693-2.031c.024-.132.139-.792-.05-.778a5.592,5.592,0,0,0-.559,1.116m-38.055.906c-.418,1.006-.881,1.952-1.252,2.961-.327.891-.878,2.3-.406,3.435.227.547.822,1.156,1.539.728a3.6,3.6,0,0,0,1.2-2.03,1.6,1.6,0,0,0,.085-.9c-.27.111-.33.388-.44.66-.1.249-.178.6-.406.693a.932.932,0,0,1-.913-.338,2.637,2.637,0,0,1,.017-2.471c.144-.391.314-.814.474-1.2a9.33,9.33,0,0,0,.643-1.844c.033-.186.114-.689-.051-.711a4.1,4.1,0,0,0-.491,1.016M129.959,47.6c-.424,1-.871,1.951-1.252,2.961-.338.9-.869,2.3-.388,3.418.2.478.635,1.084,1.354.812.7-.264,1.128-1.3,1.354-2.064a1.7,1.7,0,0,0,.1-.947c-.259.095-.33.389-.44.66-.1.251-.177.6-.406.693a.919.919,0,0,1-.964-.423,2.744,2.744,0,0,1,.05-2.368c.148-.4.309-.8.474-1.2a9.307,9.307,0,0,0,.66-1.844,1.189,1.189,0,0,0-.017-.728h-.034a3.978,3.978,0,0,0-.491,1.033m17.175.474a2.722,2.722,0,0,0-.118-.829c-.1-.3-.337-.638-.745-.525a3.327,3.327,0,0,0-1.539,1.117c-.458.532-1.286,1.618-.626,2.352a3.214,3.214,0,0,0,1.539.745,10.1,10.1,0,0,0-.9,1.066,2.817,2.817,0,0,0-.542,1.438c-.019,1.062,1.009,1.424,2.064,1.422a7.1,7.1,0,0,0,3.689-1.168A12.73,12.73,0,0,0,151.906,52a1.834,1.834,0,0,0,.542-.676,2.115,2.115,0,0,0-.779.406c-.248.154-.512.274-.762.423a9.166,9.166,0,0,1-3.4,1.354,3.594,3.594,0,0,1-2.081-.135.775.775,0,0,1-.423-.525c-.027-.4.411-.817.642-1.049a24.221,24.221,0,0,1,2.843-2.251c.117-.448.354-.865.423-1.3a1.352,1.352,0,0,0-.508.338c-.164.128-.334.254-.508.389a3.689,3.689,0,0,1-1.066.728,2.007,2.007,0,0,1-1.354-.288c-.226-.108-.774-.334-.745-.676.014-.16.274-.322.423-.423.478-.327,1.2-.363,1.4.254.066.2,0,.45.2.609.272-.137.373-.659.372-1.1m-95.229.066c-.409.944-.827,1.85-1.167,2.793a7.007,7.007,0,0,0-.542,2.081,1.949,1.949,0,0,0,.8,1.844.9.9,0,0,0,.812-.068,2.473,2.473,0,0,0,.863-1.151,4.527,4.527,0,0,0,.389-1.387c0-.4-.23-.069-.3.067-.152.28-.243.847-.491.981a.812.812,0,0,1-.795-.186c-.618-.553-.365-1.689-.1-2.4.28-.757.62-1.479.879-2.233a2.179,2.179,0,0,0,.17-1.286h-.034a4.422,4.422,0,0,0-.474.947m56.632,6.712c.119-.082.249-.161.372-.237,3.528-2.166,7.241-4.151,10.914-6.194a3.7,3.7,0,0,0,.779-.457,2.2,2.2,0,0,0,.237-.643c.051-.172.287-.744-.034-.626a15.036,15.036,0,0,0-1.506.8c-.51.264-1.021.546-1.506.812-2.453,1.35-4.937,2.8-7.394,4.163a8.835,8.835,0,0,0-1.439.88,2.612,2.612,0,0,0-.558,1,1.428,1.428,0,0,0-.237.711c.156.014.261-.126.372-.2M70.887,50.7a1.109,1.109,0,0,0,1.675.221,2.6,2.6,0,0,0,.423-1.591,1.978,1.978,0,0,0-.355-1.1H72.6a.047.047,0,0,0-.034.051c-.1.27-.167.578-.271.846.083.211.3.288.322.559-.364.348-1.366.182-1.4-.3-.025-.31.274-.5.221-.829-.774.37-.822,1.816-1.879,1.861-.711.03-.886-.543-1.32-.762-.742-.374-1.745.126-2.3.423a11.952,11.952,0,0,0-1.286.813c-.826.585-1.636,1.177-2.5,1.675a17.024,17.024,0,0,1-5.3,2.014,1.763,1.763,0,0,0-.829.22,1.462,1.462,0,0,0,.813.17A9.537,9.537,0,0,0,59.5,54.68a10.058,10.058,0,0,0,2.775-1.168,32.88,32.88,0,0,1,3.588-2.318,3.631,3.631,0,0,1,1.591-.388c.793.052.808.826,1.506.913,1,.124,1.432-.828,1.827-1.455a3.038,3.038,0,0,0,.1.44m-42.438-1.13c-.258.688-.549,1.447-.8,2.1-1.057-.4-2.129-.8-3.214-1.2-.141-.052-.392-.17-.474-.135s-.122.225-.17.355c-.26.707-.476,1.278-.728,1.946-.057.152-.312.632-.271.812.026.114.265.193.423.254,1.177.459,2.337.941,3.485,1.354a1.708,1.708,0,0,0,.322-.693c.268-.742.57-1.51.846-2.234,1.031.415,2.116.818,3.164,1.235.136.055.366.2.474.17.139-.037.3-.6.355-.745.325-.852.6-1.639.88-2.471a4.265,4.265,0,0,0-.947-.406c-.978-.369-2.022-.8-3.029-1.1a2.615,2.615,0,0,0-.321.762" transform="translate(-0.067 -0.077)" fill="#fff"/>
  </g>
</svg>
